<?xml version="1.0" encoding="UTF-8"?><svg xmlns="http://www.w3.org/2000/svg" viewBox="0 0 360 640"><g id="a"/><g id="b"/><g id="c"><rect x=".78" width="359.22" height="640" fill="#bf1724"/><path d="M337.47,621.56h-5.7c-.45,0-.82,.37-.82,.82s.36,.82,.82,.82h5.7c.45,0,.82-.37,.82-.82s-.37-.82-.82-.82Z" fill="#bf1724"/><path d="M337.47,621.56h-5.7c-.45,0-.82,.37-.82,.82s.36,.82,.82,.82h5.7c.45,0,.82-.37,.82-.82s-.37-.82-.82-.82Z" fill="#fff" opacity=".4"/><path d="M347.3,622.37c0,.45,.36,.82,.82,.82h11.89v-1.63h-11.89c-.45,0-.82,.37-.82,.82Z" fill="#bf1724"/><path d="M347.3,622.37c0,.45,.36,.82,.82,.82h11.89v-1.63h-11.89c-.45,0-.82,.37-.82,.82Z" fill="#fff" opacity=".4"/><path d="M346.07,615.46h-30.79c-.45,0-.82,.37-.82,.82s.36,.82,.82,.82h30.79c.45,0,.82-.37,.82-.82s-.36-.82-.82-.82Z" fill="#bf1724"/><path d="M346.07,615.46h-30.79c-.45,0-.82,.37-.82,.82s.36,.82,.82,.82h30.79c.45,0,.82-.37,.82-.82s-.36-.82-.82-.82Z" fill="#fff" opacity=".4"/><path d="M39.66,324.01c0-.45-.37-.82-.82-.82H7.04c-.45,0-.82,.37-.82,.82s.36,.82,.82,.82h31.8c.45,0,.82-.37,.82-.82Z" fill="#bf1724"/><path d="M39.66,324.01c0-.45-.37-.82-.82-.82H7.04c-.45,0-.82,.37-.82,.82s.36,.82,.82,.82h31.8c.45,0,.82-.37,.82-.82Z" fill="#fff" opacity=".1"/><path d="M22.94,312.98c0-.45-.36-.82-.82-.82H2.06c-.45,0-.82,.37-.82,.82s.36,.82,.82,.82H22.12c.45,0,.82-.37,.82-.82Z" fill="#bf1724"/><path d="M22.94,312.98c0-.45-.36-.82-.82-.82H2.06c-.45,0-.82,.37-.82,.82s.36,.82,.82,.82H22.12c.45,0,.82-.37,.82-.82Z" fill="#fff" opacity=".1"/><path d="M26.27,350.84c-3.12,0-5.65-2.54-5.65-5.65,0-.45-.37-.82-.82-.82s-.82,.36-.82,.82c0,3.12-2.54,5.65-5.65,5.65-.45,0-.82,.36-.82,.82s.36,.82,.82,.82c3.12,0,5.65,2.54,5.65,5.65,0,.45,.37,.82,.82,.82s.82-.37,.82-.82c0-3.12,2.54-5.65,5.65-5.65,.45,0,.82-.37,.82-.82s-.37-.82-.82-.82Zm-6.47,3.95c-.69-1.34-1.79-2.44-3.13-3.13,1.34-.69,2.44-1.79,3.13-3.13,.69,1.34,1.79,2.44,3.13,3.13-1.34,.69-2.44,1.79-3.13,3.13Z" fill="#fff" opacity=".15"/><path d="M327.85,336.59c-3.12,0-5.65-2.54-5.65-5.65,0-.45-.37-.82-.82-.82s-.82,.36-.82,.82c0,3.12-2.54,5.65-5.65,5.65-.45,0-.82,.36-.82,.82s.36,.82,.82,.82c3.12,0,5.65,2.54,5.65,5.65,0,.45,.37,.82,.82,.82s.82-.37,.82-.82c0-3.12,2.54-5.65,5.65-5.65,.45,0,.82-.37,.82-.82s-.37-.82-.82-.82Zm-6.47,3.95c-.69-1.34-1.79-2.44-3.13-3.13,1.34-.69,2.44-1.79,3.13-3.13,.69,1.34,1.79,2.44,3.13,3.13-1.34,.69-2.44,1.79-3.13,3.13Z" fill="#fff" opacity=".15"/><g opacity=".2"><path d="M349.81,370.43c-.43-.21-.95-.04-1.17,.39l-9.43,18.86c-.21,.43-.04,.95,.39,1.17,.43,.21,.95,.04,1.17-.39l9.43-18.87c.21-.43,.04-.95-.39-1.17Z" fill="#fff" opacity=".6"/><path d="M338.22,374.23c-.27-.4-.81-.5-1.21-.22l-8.75,6.02c-.24,.16-.38,.43-.38,.72s.14,.55,.38,.72l8.75,6.02c.4,.27,.94,.17,1.21-.22,.27-.4,.17-.94-.22-1.21l-7.71-5.3,7.71-5.3c.4-.27,.5-.81,.22-1.21Z" fill="#fff" opacity=".6"/><path d="M352.74,374.01c-.4-.27-.94-.17-1.21,.22-.27,.4-.17,.94,.22,1.21l7.71,5.3-7.71,5.3c-.4,.27-.5,.81-.22,1.21,.27,.4,.81,.5,1.21,.22l7.26-4.99v-3.48l-7.26-4.99Z" fill="#fff" opacity=".6"/></g><g opacity=".3"><path d="M34.35,509.65v-8.97c0-.48-.39-.87-.87-.87H9.08c-.48,0-.87,.39-.87,.87v22.8c-.87-.75-2-1.2-3.23-1.2-1.76,0-3.31,.92-4.19,2.31-.49,.77-.78,1.68-.78,2.66s.29,1.89,.78,2.66c.88,1.39,2.43,2.31,4.19,2.31,2.74,0,4.97-2.23,4.97-4.97h0v-16.73h22.67v8.58c-.87-.75-2-1.2-3.23-1.2-2.74,0-4.97,2.23-4.97,4.97s2.23,4.97,4.97,4.97,4.97-2.23,4.97-4.97h0v-13.22h0Zm-29.38,20.83c-1.78,0-3.23-1.45-3.23-3.23s1.45-3.23,3.23-3.23,3.23,1.45,3.23,3.23-1.45,3.23-3.23,3.23Zm4.97-21.7v-7.23h22.67v7.23H9.95Zm19.43,17.33c-1.78,0-3.23-1.45-3.23-3.23s1.45-3.23,3.23-3.23,3.23,1.45,3.23,3.23h0c0,1.78-1.45,3.24-3.23,3.24Z" fill="#fff"/><path d="M4.97,526.37c-.48,0-.87,.39-.87,.87s.39,.87,.87,.87,.87-.39,.87-.87-.39-.87-.87-.87Z" fill="#fff"/><path d="M29.38,522c-.48,0-.87,.39-.87,.87s.39,.87,.87,.87,.87-.39,.87-.87-.39-.87-.87-.87Z" fill="#fff"/></g><path d="M356.64,570.1c-3.04,0-5.51-2.47-5.51-5.51s2.47-5.51,5.51-5.51c1.27,0,2.43,.43,3.36,1.15v-11.19c-.84-1.43-1.06-3.69-1.06-4.79h-4.61c0,1.57-.44,5.49-2.5,6.02h0c-.66,.22-1.3,.49-1.92,.79h0c-1.84,1.08-4.92-1.38-6.03-2.49l-3.26,3.26c1.11,1.11,3.57,4.19,2.49,6.03-.31,.62-.57,1.26-.79,1.92h0c-.54,2.06-4.45,2.5-6.02,2.5v4.61c1.57,0,5.49,.44,6.03,2.5,.22,.66,.49,1.3,.79,1.92,1.08,1.84-1.38,4.92-2.49,6.03l3.26,3.26c1.11-1.11,4.19-3.57,6.03-2.49,.62,.31,1.26,.57,1.92,.79h0c2.06,.54,2.5,4.45,2.5,6.03h4.61c0-1.1,.22-3.35,1.06-4.79v-11.19c-.93,.72-2.1,1.15-3.36,1.15Z" fill="#bf1724"/><path d="M356.64,570.1c-3.04,0-5.51-2.47-5.51-5.51s2.47-5.51,5.51-5.51c1.27,0,2.43,.43,3.36,1.15v-11.19c-.84-1.43-1.06-3.69-1.06-4.79h-4.61c0,1.57-.44,5.49-2.5,6.02h0c-.66,.22-1.3,.49-1.92,.79h0c-1.84,1.08-4.92-1.38-6.03-2.49l-3.26,3.26c1.11,1.11,3.57,4.19,2.49,6.03-.31,.62-.57,1.26-.79,1.92h0c-.54,2.06-4.45,2.5-6.02,2.5v4.61c1.57,0,5.49,.44,6.03,2.5,.22,.66,.49,1.3,.79,1.92,1.08,1.84-1.38,4.92-2.49,6.03l3.26,3.26c1.11-1.11,4.19-3.57,6.03-2.49,.62,.31,1.26,.57,1.92,.79h0c2.06,.54,2.5,4.45,2.5,6.03h4.61c0-1.1,.22-3.35,1.06-4.79v-11.19c-.93,.72-2.1,1.15-3.36,1.15Z" fill="#f0808f" opacity=".6"/><path d="M2.02,619.43c3.4,.88,4.12,7.35,4.12,9.94h7.6c0-2.59,.72-9.05,4.12-9.94h0c1.09-.37,2.15-.8,3.16-1.31h0c3.03-1.78,8.11,2.28,9.94,4.11l5.38-5.38c-1.83-1.83-5.89-6.91-4.11-9.94,.51-1.02,.94-2.07,1.31-3.16h0c.88-3.4,7.34-4.12,9.93-4.12v-7.6c-2.59,0-9.05-.72-9.93-4.12h0c-.37-1.08-.8-2.14-1.31-3.16h0c-1.78-3.03,2.28-8.11,4.11-9.94l-5.38-5.38c-1.83,1.83-6.91,5.89-9.94,4.11-1.01-.51-2.07-.94-3.16-1.31h0c-3.4-.88-4.12-7.34-4.12-9.93H6.14c0,2.59-.72,9.05-4.12,9.93h0c-.42,.14-.83,.3-1.24,.47v46.26c.41,.16,.82,.32,1.24,.47h0Zm-1.17-23.59c0-5.02,4.07-9.09,9.09-9.09s9.09,4.07,9.09,9.09-4.07,9.09-9.09,9.09-9.09-4.07-9.09-9.09Z" fill="#bf1724"/><path d="M2.02,619.43c3.4,.88,4.12,7.35,4.12,9.94h7.6c0-2.59,.72-9.05,4.12-9.94h0c1.09-.37,2.15-.8,3.16-1.31h0c3.03-1.78,8.11,2.28,9.94,4.11l5.38-5.38c-1.83-1.83-5.89-6.91-4.11-9.94,.51-1.02,.94-2.07,1.31-3.16h0c.88-3.4,7.34-4.12,9.93-4.12v-7.6c-2.59,0-9.05-.72-9.93-4.12h0c-.37-1.08-.8-2.14-1.31-3.16h0c-1.78-3.03,2.28-8.11,4.11-9.94l-5.38-5.38c-1.83,1.83-6.91,5.89-9.94,4.11-1.01-.51-2.07-.94-3.16-1.31h0c-3.4-.88-4.12-7.34-4.12-9.93H6.14c0,2.59-.72,9.05-4.12,9.93h0c-.42,.14-.83,.3-1.24,.47v46.26c.41,.16,.82,.32,1.24,.47h0Zm-1.17-23.59c0-5.02,4.07-9.09,9.09-9.09s9.09,4.07,9.09,9.09-4.07,9.09-9.09,9.09-9.09-4.07-9.09-9.09Z" fill="#f0808f" opacity=".6"/><polygon points="32.23 606.91 32.23 606.91 32.23 606.91 32.23 606.91" fill="#bf1724"/><polygon points="32.23 606.91 32.23 606.91 32.23 606.91 32.23 606.91" fill="#f0808f" opacity=".6"/><path d="M50.31,404.9h0c-.17-.49-.36-.97-.59-1.43h0c-.8-1.37,1.03-3.66,1.86-4.49l-2.43-2.43c-.83,.83-3.12,2.66-4.49,1.86-.46-.23-.93-.43-1.43-.59h0c-1.54-.4-1.86-3.32-1.86-4.49h-3.43c0,1.17-.33,4.09-1.86,4.49h0c-.49,.17-.97,.36-1.43,.59h0c-1.37,.8-3.66-1.03-4.49-1.86l-2.43,2.43c.83,.83,2.66,3.12,1.86,4.49-.23,.46-.43,.94-.59,1.43h0c-.4,1.54-3.32,1.86-4.49,1.86v3.43c1.17,0,4.09,.33,4.49,1.86,.17,.49,.36,.97,.59,1.43,.8,1.37-1.03,3.66-1.86,4.49l2.43,2.43c.83-.83,3.12-2.66,4.49-1.86,.46,.23,.94,.43,1.43,.59h0c1.54,.4,1.86,3.32,1.86,4.49h3.43c0-1.17,.32-4.09,1.86-4.49h0c.49-.17,.97-.36,1.43-.59h0c1.37-.8,3.66,1.03,4.49,1.86l2.43-2.43c-.83-.83-2.66-3.12-1.86-4.49h0c.23-.46,.43-.93,.59-1.43h0c.4-1.53,3.32-1.86,4.49-1.86v-3.43c-1.17,0-4.09-.33-4.49-1.86Zm-10.65,7.68c-2.27,0-4.1-1.84-4.1-4.1s1.84-4.1,4.1-4.1,4.1,1.84,4.1,4.1-1.84,4.1-4.1,4.1Z" fill="#bf1724"/><path d="M50.31,404.9h0c-.17-.49-.36-.97-.59-1.43h0c-.8-1.37,1.03-3.66,1.86-4.49l-2.43-2.43c-.83,.83-3.12,2.66-4.49,1.86-.46-.23-.93-.43-1.43-.59h0c-1.54-.4-1.86-3.32-1.86-4.49h-3.43c0,1.17-.33,4.09-1.86,4.49h0c-.49,.17-.97,.36-1.43,.59h0c-1.37,.8-3.66-1.03-4.49-1.86l-2.43,2.43c.83,.83,2.66,3.12,1.86,4.49-.23,.46-.43,.94-.59,1.43h0c-.4,1.54-3.32,1.86-4.49,1.86v3.43c1.17,0,4.09,.33,4.49,1.86,.17,.49,.36,.97,.59,1.43,.8,1.37-1.03,3.66-1.86,4.49l2.43,2.43c.83-.83,3.12-2.66,4.49-1.86,.46,.23,.94,.43,1.43,.59h0c1.54,.4,1.86,3.32,1.86,4.49h3.43c0-1.17,.32-4.09,1.86-4.49h0c.49-.17,.97-.36,1.43-.59h0c1.37-.8,3.66,1.03,4.49,1.86l2.43-2.43c-.83-.83-2.66-3.12-1.86-4.49h0c.23-.46,.43-.93,.59-1.43h0c.4-1.53,3.32-1.86,4.49-1.86v-3.43c-1.17,0-4.09-.33-4.49-1.86Zm-10.65,7.68c-2.27,0-4.1-1.84-4.1-4.1s1.84-4.1,4.1-4.1,4.1,1.84,4.1,4.1-1.84,4.1-4.1,4.1Z" fill="#f0808f" opacity=".3"/><path d="M358.96,277.02c-2.46-2.46-6.46-2.46-8.92,0-.86,.86-2.01,1.34-3.23,1.34s-2.37-.48-3.23-1.34c-2.46-2.46-6.47-2.46-8.92,0-1.78,1.78-4.68,1.78-6.46,0-.34-.34-.89-.34-1.23,0-.34,.34-.34,.89,0,1.23,2.46,2.46,6.46,2.46,8.92,0,1.78-1.78,4.68-1.78,6.46,0,1.19,1.19,2.77,1.85,4.46,1.85s3.27-.66,4.46-1.85c1.78-1.78,4.68-1.78,6.46,0,.34,.34,.89,.34,1.23,0,.34-.34,.34-.89,0-1.23Z" fill="#fff" opacity=".1"/><path d="M9.55,442.89c1.78-1.78,4.68-1.78,6.46,0,.34,.34,.89,.34,1.23,0,.34-.34,.34-.89,0-1.23-2.46-2.46-6.46-2.46-8.92,0-.86,.86-2.01,1.34-3.23,1.34s-2.37-.48-3.23-1.34c-.33-.33-.7-.62-1.08-.86v2.23c1.17,1.1,2.69,1.71,4.31,1.71s3.27-.66,4.46-1.85Z" fill="#bf1724"/><path d="M9.55,442.89c1.78-1.78,4.68-1.78,6.46,0,.34,.34,.89,.34,1.23,0,.34-.34,.34-.89,0-1.23-2.46-2.46-6.46-2.46-8.92,0-.86,.86-2.01,1.34-3.23,1.34s-2.37-.48-3.23-1.34c-.33-.33-.7-.62-1.08-.86v2.23c1.17,1.1,2.69,1.71,4.31,1.71s3.27-.66,4.46-1.85Z" fill="#fff" opacity=".3"/><path d="M334.02,436.48l-4.6-4.6,4.6-4.6c.34-.34,.34-.89,0-1.23-.34-.34-.89-.34-1.23,0l-5.22,5.22c-.34,.34-.34,.89,0,1.23l4.6,4.6-4.6,4.6c-.34,.34-.34,.89,0,1.23l4.6,4.6-4.6,4.6c-.34,.34-.34,.89,0,1.23l4.6,4.6-4.6,4.6c-.34,.34-.34,.89,0,1.23l4.6,4.6-4.6,4.6c-.34,.34-.34,.89,0,1.23,.34,.34,.89,.34,1.23,0l5.22-5.22c.34-.34,.34-.89,0-1.23l-4.6-4.6,4.6-4.6c.34-.34,.34-.89,0-1.23l-4.6-4.6,4.6-4.6c.34-.34,.34-.89,0-1.23l-4.6-4.6,4.6-4.6c.34-.34,.34-.89,0-1.23Z" fill="#fff" opacity=".3"/><path d="M344.71,498.93c-.48,0-.87,.39-.87,.87v2.56c0,.48,.39,.87,.87,.87s.87-.39,.87-.87v-2.56c0-.48-.39-.87-.87-.87Z" fill="#fff" opacity=".3"/><path d="M342.2,504.01h-2.56c-.48,0-.87,.39-.87,.87s.39,.87,.87,.87h2.56c.48,0,.87-.39,.87-.87s-.39-.87-.87-.87Z" fill="#fff" opacity=".3"/><path d="M344.71,506.52c-.48,0-.87,.39-.87,.87v2.56c0,.48,.39,.87,.87,.87s.87-.39,.87-.87v-2.56c0-.48-.39-.87-.87-.87Z" fill="#fff" opacity=".3"/><path d="M349.78,504.01h-2.56c-.48,0-.87,.39-.87,.87s.39,.87,.87,.87h2.56c.48,0,.87-.39,.87-.87s-.39-.87-.87-.87Z" fill="#fff" opacity=".3"/><path d="M324.13,520.92c0-.48-.39-.87-.87-.87s-.87,.39-.87,.87v2.56c0,.48,.39,.87,.87,.87s.87-.39,.87-.87v-2.56Z" fill="#fff" opacity=".3"/><path d="M320.74,525.13h-2.56c-.48,0-.87,.39-.87,.87s.39,.87,.87,.87h2.56c.48,0,.87-.39,.87-.87s-.39-.87-.87-.87Z" fill="#fff" opacity=".3"/><path d="M323.26,527.64c-.48,0-.87,.39-.87,.87v2.56c0,.48,.39,.87,.87,.87s.87-.39,.87-.87v-2.56c0-.48-.39-.87-.87-.87Z" fill="#fff" opacity=".3"/><path d="M325.77,525.13c-.48,0-.87,.39-.87,.87s.39,.87,.87,.87h2.56c.48,0,.87-.39,.87-.87s-.39-.87-.87-.87h-2.56Z" fill="#fff" opacity=".3"/><g opacity=".2"><path d="M39.66,452.34c-.48,0-.87,.39-.87,.87v2.56c0,.48,.39,.87,.87,.87s.87-.39,.87-.87v-2.56c0-.48-.39-.87-.87-.87Z" fill="#fff"/><path d="M37.14,457.41h-2.56c-.48,0-.87,.39-.87,.87s.39,.87,.87,.87h2.56c.48,0,.87-.39,.87-.87s-.39-.87-.87-.87Z" fill="#fff"/><path d="M39.66,459.92c-.48,0-.87,.39-.87,.87v2.56c0,.48,.39,.87,.87,.87s.87-.39,.87-.87v-2.56c0-.48-.39-.87-.87-.87Z" fill="#fff"/><path d="M44.73,457.41h-2.56c-.48,0-.87,.39-.87,.87s.39,.87,.87,.87h2.56c.48,0,.87-.39,.87-.87s-.39-.87-.87-.87Z" fill="#fff"/></g></g></svg>