<?xml version="1.0" encoding="UTF-8"?><svg xmlns="http://www.w3.org/2000/svg" viewBox="0 0 768 1024"><g id="a"/><g id="b"/><g id="c"><rect x="-.26" width="768.51" height="1024" fill="#bf1724"/><path d="M720.05,970.19h-12.2c-.96,0-1.74,.78-1.74,1.75s.78,1.74,1.74,1.74h12.2c.96,0,1.75-.78,1.75-1.74s-.78-1.75-1.75-1.75Z" fill="#bf1724"/><path d="M720.05,970.19h-12.2c-.96,0-1.74,.78-1.74,1.75s.78,1.74,1.74,1.74h12.2c.96,0,1.75-.78,1.75-1.74s-.78-1.75-1.75-1.75Z" fill="#fff" opacity=".4"/><path d="M741.08,971.94c0,.96,.78,1.74,1.74,1.74h25.44v-3.49h-25.44c-.96,0-1.74,.78-1.74,1.75Z" fill="#bf1724"/><path d="M741.08,971.94c0,.96,.78,1.74,1.74,1.74h25.44v-3.49h-25.44c-.96,0-1.74,.78-1.74,1.75Z" fill="#fff" opacity=".4"/><path d="M738.45,957.14h-65.87c-.96,0-1.74,.78-1.74,1.75s.78,1.74,1.74,1.74h65.87c.96,0,1.74-.78,1.74-1.74s-.78-1.75-1.74-1.75Z" fill="#bf1724"/><path d="M738.45,957.14h-65.87c-.96,0-1.74,.78-1.74,1.75s.78,1.74,1.74,1.74h65.87c.96,0,1.74-.78,1.74-1.74s-.78-1.75-1.74-1.75Z" fill="#fff" opacity=".4"/><path d="M82.91,333.63c0-.96-.78-1.75-1.75-1.75H13.13c-.96,0-1.74,.78-1.74,1.75s.78,1.74,1.74,1.74H81.17c.96,0,1.75-.78,1.75-1.74Z" fill="#bf1724"/><path d="M82.91,333.63c0-.96-.78-1.75-1.75-1.75H13.13c-.96,0-1.74,.78-1.74,1.75s.78,1.74,1.74,1.74H81.17c.96,0,1.75-.78,1.75-1.74Z" fill="#fff" opacity=".1"/><path d="M47.15,310.02c0-.96-.78-1.75-1.74-1.75H2.47c-.96,0-1.74,.78-1.74,1.75s.78,1.74,1.74,1.74H45.41c.96,0,1.74-.78,1.74-1.74Z" fill="#bf1724"/><path d="M47.15,310.02c0-.96-.78-1.75-1.74-1.75H2.47c-.96,0-1.74,.78-1.74,1.75s.78,1.74,1.74,1.74H45.41c.96,0,1.74-.78,1.74-1.74Z" fill="#fff" opacity=".1"/><path d="M54.28,391.01c-6.67,0-12.09-5.43-12.09-12.09,0-.96-.78-1.74-1.75-1.74s-1.74,.78-1.74,1.74c0,6.67-5.42,12.09-12.09,12.09-.96,0-1.74,.78-1.74,1.74s.78,1.74,1.74,1.74c6.67,0,12.09,5.42,12.09,12.09,0,.96,.78,1.75,1.74,1.75s1.75-.78,1.75-1.75c0-6.67,5.42-12.09,12.09-12.09,.96,0,1.75-.78,1.75-1.74s-.78-1.74-1.75-1.74Zm-13.84,8.45c-1.49-2.87-3.83-5.22-6.7-6.7,2.87-1.49,5.22-3.83,6.7-6.7,1.49,2.87,3.83,5.22,6.7,6.7-2.87,1.49-5.22,3.83-6.7,6.7Z" fill="#fff" opacity=".15"/><path d="M699.48,360.55c-6.67,0-12.09-5.43-12.09-12.09,0-.96-.78-1.74-1.75-1.74s-1.74,.78-1.74,1.74c0,6.67-5.42,12.09-12.09,12.09-.96,0-1.74,.78-1.74,1.74s.78,1.74,1.74,1.74c6.67,0,12.09,5.42,12.09,12.09,0,.96,.78,1.75,1.74,1.75s1.75-.78,1.75-1.75c0-6.67,5.42-12.09,12.09-12.09,.96,0,1.75-.78,1.75-1.74s-.78-1.74-1.75-1.74Zm-13.84,8.45c-1.49-2.87-3.83-5.22-6.7-6.7,2.87-1.49,5.22-3.83,6.7-6.7,1.49,2.87,3.83,5.22,6.7,6.7-2.87,1.49-5.22,3.83-6.7,6.7Z" fill="#fff" opacity=".15"/><g opacity=".2"><path d="M746.46,432.93c-.92-.46-2.04-.09-2.5,.83l-20.18,40.36c-.46,.92-.09,2.04,.83,2.5,.92,.46,2.04,.09,2.5-.83l20.18-40.36c.46-.92,.09-2.04-.83-2.5Z" fill="#fff" opacity=".6"/><path d="M721.66,441.06c-.58-.85-1.74-1.06-2.59-.48l-18.72,12.88c-.5,.35-.81,.92-.81,1.53s.3,1.19,.81,1.53l18.72,12.88c.85,.58,2.01,.37,2.59-.48,.58-.85,.37-2.01-.48-2.59l-16.49-11.35,16.49-11.35c.85-.58,1.06-1.74,.48-2.59Z" fill="#fff" opacity=".6"/><path d="M752.72,440.58c-.85-.58-2.01-.37-2.59,.48-.58,.85-.37,2.01,.48,2.59l16.49,11.35-16.49,11.35c-.85,.58-1.06,1.74-.48,2.59,.58,.85,1.74,1.06,2.59,.48l15.53-10.68v-7.45l-15.53-10.68Z" fill="#fff" opacity=".6"/></g><g opacity=".3"><path d="M71.57,730.77v-19.2c0-1.03-.83-1.86-1.86-1.86H17.49c-1.03,0-1.86,.83-1.86,1.86v48.77c-1.86-1.6-4.28-2.57-6.92-2.57-3.77,0-7.08,1.98-8.97,4.94-1.05,1.65-1.67,3.6-1.67,5.7s.62,4.05,1.67,5.7c1.89,2.96,5.2,4.94,8.97,4.94,5.86,0,10.63-4.77,10.64-10.63h0v-35.79h48.49v18.36c-1.86-1.6-4.28-2.57-6.92-2.57-5.87,0-10.64,4.77-10.64,10.64s4.77,10.64,10.64,10.64,10.64-4.77,10.64-10.64h0v-28.29h0Zm-62.86,44.56c-3.81,0-6.92-3.1-6.92-6.92s3.1-6.92,6.92-6.92,6.92,3.1,6.92,6.92-3.1,6.92-6.92,6.92Zm10.64-46.42v-15.47h48.49v15.47H19.35Zm41.57,37.07c-3.81,0-6.92-3.1-6.92-6.92s3.1-6.92,6.92-6.92,6.92,3.1,6.92,6.92h0c0,3.82-3.1,6.92-6.92,6.92Z" fill="#fff"/><path d="M8.71,766.56c-1.03,0-1.86,.83-1.86,1.86s.83,1.86,1.86,1.86,1.86-.83,1.86-1.86-.83-1.86-1.86-1.86Z" fill="#fff"/><path d="M60.93,757.2c-1.03,0-1.86,.83-1.86,1.86s.83,1.86,1.86,1.86,1.86-.83,1.86-1.86-.83-1.86-1.86-1.86Z" fill="#fff"/></g><path d="M761.06,860.11c-6.51,0-11.79-5.28-11.79-11.79s5.28-11.79,11.79-11.79c2.71,0,5.2,.93,7.2,2.46v-23.93c-1.8-3.07-2.26-7.89-2.26-10.24h-9.86c0,3.36-.93,11.74-5.35,12.89h0c-1.41,.48-2.78,1.04-4.1,1.7h0c-3.93,2.31-10.52-2.96-12.9-5.33l-6.97,6.98c2.38,2.38,7.64,8.96,5.33,12.89-.66,1.32-1.22,2.69-1.7,4.1h0c-1.15,4.41-9.53,5.35-12.89,5.35v9.86c3.36,0,11.74,.93,12.89,5.35,.47,1.41,1.04,2.78,1.69,4.1,2.31,3.93-2.96,10.52-5.33,12.89l6.97,6.98c2.38-2.38,8.97-7.64,12.9-5.34,1.32,.66,2.69,1.22,4.1,1.7h0c4.41,1.15,5.35,9.53,5.35,12.89h9.87c0-2.36,.46-7.18,2.26-10.24v-23.93c-1.99,1.54-4.48,2.46-7.2,2.46Z" fill="#bf1724"/><path d="M761.06,860.11c-6.51,0-11.79-5.28-11.79-11.79s5.28-11.79,11.79-11.79c2.71,0,5.2,.93,7.2,2.46v-23.93c-1.8-3.07-2.26-7.89-2.26-10.24h-9.86c0,3.36-.93,11.74-5.35,12.89h0c-1.41,.48-2.78,1.04-4.1,1.7h0c-3.93,2.31-10.52-2.96-12.9-5.33l-6.97,6.98c2.38,2.38,7.64,8.96,5.33,12.89-.66,1.32-1.22,2.69-1.7,4.1h0c-1.15,4.41-9.53,5.35-12.89,5.35v9.86c3.36,0,11.74,.93,12.89,5.35,.47,1.41,1.04,2.78,1.69,4.1,2.31,3.93-2.96,10.52-5.33,12.89l6.97,6.98c2.38-2.38,8.97-7.64,12.9-5.34,1.32,.66,2.69,1.22,4.1,1.7h0c4.41,1.15,5.35,9.53,5.35,12.89h9.87c0-2.36,.46-7.18,2.26-10.24v-23.93c-1.99,1.54-4.48,2.46-7.2,2.46Z" fill="#f0808f" opacity=".6"/><path d="M2.4,965.63c7.28,1.89,8.82,15.71,8.82,21.26H27.49c0-5.55,1.54-19.37,8.82-21.26h0c2.33-.78,4.59-1.72,6.76-2.8h0c6.48-3.81,17.34,4.88,21.27,8.8l11.5-11.5c-3.92-3.92-12.6-14.78-8.8-21.27,1.08-2.17,2.01-4.43,2.8-6.76h0c1.89-7.27,15.71-8.81,21.25-8.81v-16.26c-5.55,0-19.36-1.54-21.25-8.82h0c-.79-2.32-1.72-4.58-2.8-6.76h0c-3.81-6.48,4.87-17.34,8.8-21.26l-11.5-11.51c-3.92,3.92-14.78,12.61-21.27,8.8-2.17-1.08-4.43-2.01-6.76-2.8h0c-7.28-1.89-8.82-15.71-8.82-21.25H11.22c0,5.55-1.54,19.36-8.82,21.25h0c-.9,.3-1.78,.65-2.66,1v98.97c.88,.35,1.76,.69,2.66,1h0ZM-.09,915.15c0-10.74,8.7-19.44,19.44-19.44s19.44,8.71,19.44,19.44-8.7,19.44-19.44,19.44S-.09,925.89-.09,915.15Z" fill="#bf1724"/><path d="M2.4,965.63c7.28,1.89,8.82,15.71,8.82,21.26H27.49c0-5.55,1.54-19.37,8.82-21.26h0c2.33-.78,4.59-1.72,6.76-2.8h0c6.48-3.81,17.34,4.88,21.27,8.8l11.5-11.5c-3.92-3.92-12.6-14.78-8.8-21.27,1.08-2.17,2.01-4.43,2.8-6.76h0c1.89-7.27,15.71-8.81,21.25-8.81v-16.26c-5.55,0-19.36-1.54-21.25-8.82h0c-.79-2.32-1.72-4.58-2.8-6.76h0c-3.81-6.48,4.87-17.34,8.8-21.26l-11.5-11.51c-3.92,3.92-14.78,12.61-21.27,8.8-2.17-1.08-4.43-2.01-6.76-2.8h0c-7.28-1.89-8.82-15.71-8.82-21.25H11.22c0,5.55-1.54,19.36-8.82,21.25h0c-.9,.3-1.78,.65-2.66,1v98.97c.88,.35,1.76,.69,2.66,1h0ZM-.09,915.15c0-10.74,8.7-19.44,19.44-19.44s19.44,8.71,19.44,19.44-8.7,19.44-19.44,19.44S-.09,925.89-.09,915.15Z" fill="#f0808f" opacity=".6"/><polygon points="67.03 938.86 67.03 938.86 67.03 938.87 67.03 938.86" fill="#bf1724"/><polygon points="67.03 938.86 67.03 938.86 67.03 938.87 67.03 938.86" fill="#f0808f" opacity=".6"/><path d="M105.7,506.67h0c-.36-1.05-.78-2.07-1.27-3.05h0c-1.72-2.93,2.2-7.83,3.97-9.6l-5.19-5.2c-1.77,1.77-6.67,5.69-9.6,3.97-.98-.49-2-.91-3.05-1.27h0c-3.29-.85-3.98-7.09-3.98-9.6h-7.34c0,2.5-.7,8.74-3.98,9.6h0c-1.05,.36-2.07,.78-3.05,1.27h0c-2.93,1.72-7.83-2.2-9.6-3.97l-5.19,5.19c1.77,1.77,5.69,6.67,3.97,9.6-.49,.98-.91,2-1.26,3.05h0c-.85,3.28-7.09,3.98-9.6,3.98v7.34c2.5,0,8.74,.7,9.6,3.98,.35,1.05,.77,2.07,1.26,3.05,1.72,2.93-2.2,7.83-3.97,9.6l5.19,5.19c1.77-1.77,6.68-5.69,9.6-3.97,.98,.49,2,.91,3.05,1.26h0c3.29,.85,3.98,7.1,3.98,9.6h7.35c0-2.51,.69-8.74,3.98-9.6h0c1.05-.35,2.07-.78,3.05-1.26h0c2.93-1.72,7.83,2.2,9.6,3.97l5.19-5.19c-1.77-1.77-5.69-6.68-3.97-9.6h0c.49-.98,.91-2,1.27-3.05h0c.85-3.28,7.09-3.98,9.6-3.98v-7.34c-2.5,0-8.74-.7-9.6-3.98Zm-22.79,16.43c-4.85,0-8.78-3.93-8.78-8.78s3.93-8.78,8.78-8.78,8.78,3.93,8.78,8.78-3.93,8.78-8.78,8.78Z" fill="#bf1724"/><path d="M105.7,506.67h0c-.36-1.05-.78-2.07-1.27-3.05h0c-1.72-2.93,2.2-7.83,3.97-9.6l-5.19-5.2c-1.77,1.77-6.67,5.69-9.6,3.97-.98-.49-2-.91-3.05-1.27h0c-3.29-.85-3.98-7.09-3.98-9.6h-7.34c0,2.5-.7,8.74-3.98,9.6h0c-1.05,.36-2.07,.78-3.05,1.27h0c-2.93,1.72-7.83-2.2-9.6-3.97l-5.19,5.19c1.77,1.77,5.69,6.67,3.97,9.6-.49,.98-.91,2-1.26,3.05h0c-.85,3.28-7.09,3.98-9.6,3.98v7.34c2.5,0,8.74,.7,9.6,3.98,.35,1.05,.77,2.07,1.26,3.05,1.72,2.93-2.2,7.83-3.97,9.6l5.19,5.19c1.77-1.77,6.68-5.69,9.6-3.97,.98,.49,2,.91,3.05,1.26h0c3.29,.85,3.98,7.1,3.98,9.6h7.35c0-2.51,.69-8.74,3.98-9.6h0c1.05-.35,2.07-.78,3.05-1.26h0c2.93-1.72,7.83,2.2,9.6,3.97l5.19-5.19c-1.77-1.77-5.69-6.68-3.97-9.6h0c.49-.98,.91-2,1.27-3.05h0c.85-3.28,7.09-3.98,9.6-3.98v-7.34c-2.5,0-8.74-.7-9.6-3.98Zm-22.79,16.43c-4.85,0-8.78-3.93-8.78-8.78s3.93-8.78,8.78-8.78,8.78,3.93,8.78,8.78-3.93,8.78-8.78,8.78Z" fill="#f0808f" opacity=".3"/><path d="M766.04,233.08c-5.26-5.26-13.82-5.26-19.09,0-1.85,1.85-4.3,2.86-6.91,2.86s-5.06-1.02-6.91-2.86c-5.27-5.26-13.83-5.26-19.09,0-3.81,3.81-10.02,3.81-13.83,0-.73-.73-1.9-.73-2.63,0-.73,.73-.73,1.91,0,2.63,5.26,5.26,13.82,5.26,19.09,0,3.81-3.81,10.01-3.81,13.83,0,2.55,2.55,5.93,3.95,9.54,3.95s6.99-1.4,9.54-3.95c3.81-3.81,10.01-3.81,13.82,0,.73,.73,1.9,.73,2.63,0,.73-.73,.73-1.91,0-2.63Z" fill="#fff" opacity=".1"/><path d="M18.5,587.96c3.81-3.81,10.01-3.81,13.82,0,.73,.73,1.9,.73,2.63,0,.73-.73,.73-1.91,0-2.63-5.26-5.26-13.82-5.26-19.09,0-1.85,1.85-4.3,2.86-6.91,2.86s-5.06-1.02-6.91-2.86c-.71-.71-1.49-1.32-2.31-1.84v4.76c2.51,2.35,5.76,3.66,9.22,3.66s6.99-1.4,9.54-3.95Z" fill="#bf1724"/><path d="M18.5,587.96c3.81-3.81,10.01-3.81,13.82,0,.73,.73,1.9,.73,2.63,0,.73-.73,.73-1.91,0-2.63-5.26-5.26-13.82-5.26-19.09,0-1.85,1.85-4.3,2.86-6.91,2.86s-5.06-1.02-6.91-2.86c-.71-.71-1.49-1.32-2.31-1.84v4.76c2.51,2.35,5.76,3.66,9.22,3.66s6.99-1.4,9.54-3.95Z" fill="#fff" opacity=".3"/><path d="M712.67,574.24l-9.85-9.85,9.85-9.85c.73-.73,.73-1.9,0-2.63-.73-.73-1.9-.73-2.63,0l-11.16,11.16c-.73,.73-.73,1.91,0,2.63l9.85,9.85-9.85,9.85c-.73,.73-.73,1.9,0,2.63l9.85,9.85-9.85,9.85c-.73,.73-.73,1.91,0,2.63l9.85,9.85-9.85,9.85c-.73,.73-.73,1.91,0,2.63l9.85,9.85-9.85,9.85c-.73,.73-.73,1.9,0,2.63,.73,.73,1.9,.73,2.63,0l11.16-11.16c.73-.73,.73-1.91,0-2.63l-9.85-9.85,9.85-9.85c.73-.73,.73-1.9,0-2.63l-9.85-9.85,9.85-9.85c.73-.73,.73-1.91,0-2.63l-9.85-9.85,9.85-9.85c.73-.73,.73-1.91,0-2.63Z" fill="#fff" opacity=".3"/><path d="M735.54,707.85c-1.03,0-1.86,.83-1.86,1.86v5.48c0,1.03,.83,1.86,1.86,1.86s1.86-.83,1.86-1.86v-5.48c0-1.03-.83-1.86-1.86-1.86Z" fill="#fff" opacity=".3"/><path d="M730.17,718.7h-5.48c-1.03,0-1.86,.83-1.86,1.86s.83,1.86,1.86,1.86h5.48c1.03,0,1.86-.83,1.86-1.86s-.83-1.86-1.86-1.86Z" fill="#fff" opacity=".3"/><path d="M735.54,724.08c-1.03,0-1.86,.83-1.86,1.86v5.48c0,1.03,.83,1.86,1.86,1.86s1.86-.83,1.86-1.86v-5.48c0-1.03-.83-1.86-1.86-1.86Z" fill="#fff" opacity=".3"/><path d="M746.4,718.7h-5.48c-1.03,0-1.86,.83-1.86,1.86s.83,1.86,1.86,1.86h5.48c1.03,0,1.86-.83,1.86-1.86s-.83-1.86-1.86-1.86Z" fill="#fff" opacity=".3"/><path d="M691.51,754.9c0-1.03-.83-1.86-1.86-1.86s-1.86,.83-1.86,1.86v5.48c0,1.03,.83,1.86,1.86,1.86s1.86-.83,1.86-1.86v-5.48Z" fill="#fff" opacity=".3"/><path d="M684.27,763.89h-5.48c-1.03,0-1.86,.83-1.86,1.86s.83,1.86,1.86,1.86h5.48c1.03,0,1.86-.83,1.86-1.86s-.83-1.86-1.86-1.86Z" fill="#fff" opacity=".3"/><path d="M689.65,769.27c-1.03,0-1.86,.83-1.86,1.86v5.48c0,1.03,.83,1.86,1.86,1.86s1.86-.83,1.86-1.86v-5.48c0-1.03-.83-1.86-1.86-1.86Z" fill="#fff" opacity=".3"/><path d="M695.02,763.89c-1.03,0-1.86,.83-1.86,1.86s.83,1.86,1.86,1.86h5.48c1.03,0,1.86-.83,1.86-1.86s-.83-1.86-1.86-1.86h-5.48Z" fill="#fff" opacity=".3"/><g opacity=".2"><path d="M82.91,608.17c-1.03,0-1.86,.83-1.86,1.86v5.48c0,1.03,.83,1.86,1.86,1.86s1.86-.83,1.86-1.86v-5.48c0-1.03-.83-1.86-1.86-1.86Z" fill="#fff"/><path d="M77.54,619.02h-5.48c-1.03,0-1.86,.83-1.86,1.86s.83,1.86,1.86,1.86h5.48c1.03,0,1.86-.83,1.86-1.86s-.83-1.86-1.86-1.86Z" fill="#fff"/><path d="M82.91,624.39c-1.03,0-1.86,.83-1.86,1.86v5.48c0,1.03,.83,1.86,1.86,1.86s1.86-.83,1.86-1.86v-5.48c0-1.03-.83-1.86-1.86-1.86Z" fill="#fff"/><path d="M93.76,619.02h-5.48c-1.03,0-1.86,.83-1.86,1.86s.83,1.86,1.86,1.86h5.48c1.03,0,1.86-.83,1.86-1.86s-.83-1.86-1.86-1.86Z" fill="#fff"/></g></g></svg>