<svg id="btn_inicio" xmlns="http://www.w3.org/2000/svg" viewBox="0 0 197.43 197.43"><path d="M98.71,0a98.72,98.72,0,1,0,98.72,98.71A98.71,98.71,0,0,0,98.71,0Z" fill="#fff"/><circle id="color_hover" cx="98.71" cy="98.71" r="79.88" transform="matrix(0.08, -1, 1, 0.08, -7.78, 188.98)" fill="#00b7bd"/><circle id="btn_inicio_hover" cx="98.71" cy="98.71" r="79.88" transform="matrix(0.08, -1, 1, 0.08, -7.78, 188.98)" fill="#faf2fa1f"/><path d="M92.58,130.28A12.13,12.13,0,0,1,74.06,120V74.34A12.13,12.13,0,0,1,92.58,64L129.12,86.7a12.3,12.3,0,0,1,0,20.91Z" fill="#fff"/></svg>