<svg width="20" height="20" viewBox="0 0 20 20" fill="none" xmlns="http://www.w3.org/2000/svg">
<path d="M5.36709 5.36709C5.48316 5.25073 5.62105 5.15841 5.77286 5.09542C5.92466 5.03242 6.0874 5 6.25176 5C6.41611 5 6.57885 5.03242 6.73066 5.09542C6.88246 5.15841 7.02035 5.25073 7.13642 5.36709L10.0003 8.2335L12.8642 5.36709C12.9804 5.25092 13.1183 5.15876 13.2701 5.09589C13.4219 5.03302 13.5846 5.00065 13.7489 5.00065C13.9132 5.00065 14.0759 5.03302 14.2277 5.09589C14.3795 5.15876 14.5174 5.25092 14.6336 5.36709C14.7497 5.48327 14.8419 5.62119 14.9048 5.77298C14.9676 5.92477 15 6.08746 15 6.25176C15 6.41605 14.9676 6.57874 14.9048 6.73053C14.8419 6.88232 14.7497 7.02024 14.6336 7.13642L11.7672 10.0003L14.6336 12.8642C14.8682 13.0989 15 13.4171 15 13.7489C15 14.0807 14.8682 14.3989 14.6336 14.6336C14.3989 14.8682 14.0807 15 13.7489 15C13.4171 15 13.0989 14.8682 12.8642 14.6336L10.0003 11.7672L7.13642 14.6336C6.90179 14.8682 6.58357 15 6.25176 15C5.91994 15 5.60172 14.8682 5.36709 14.6336C5.13247 14.3989 5.00065 14.0807 5.00065 13.7489C5.00065 13.4171 5.13247 13.0989 5.36709 12.8642L8.2335 10.0003L5.36709 7.13642C5.25073 7.02035 5.15841 6.88246 5.09542 6.73066C5.03242 6.57885 5 6.41611 5 6.25176C5 6.0874 5.03242 5.92466 5.09542 5.77286C5.15841 5.62105 5.25073 5.48316 5.36709 5.36709Z" fill="#eb522c"/>
<path d="M5 2H15V-2H5V2ZM18 5V15H22V5H18ZM15 18H5V22H15V18ZM2 15V5H-2V15H2ZM5 18C3.34315 18 2 16.6569 2 15H-2C-2 18.866 1.13401 22 5 22V18ZM18 15C18 16.6569 16.6569 18 15 18V22C18.866 22 22 18.866 22 15H18ZM15 2C16.6569 2 18 3.34315 18 5H22C22 1.13401 18.866 -2 15 -2V2ZM5 -2C1.13401 -2 -2 1.13401 -2 5H2C2 3.34315 3.34315 2 5 2V-2Z" fill="#ffffff9"/>
</svg>
