<svg width="545" height="83" viewBox="0 0 545 83" fill="none" xmlns="http://www.w3.org/2000/svg">
<path d="M503.541 22.6805V46.5005H483.661L503.541 22.6805ZM515.371 13.4805H504.121L474.961 48.3105V53.2405H503.541V61.1305C503.541 63.5905 500.171 64.8305 493.441 64.8305V69.5105H522.851V64.8305C517.871 64.8305 515.381 63.6005 515.381 61.1305V53.2405H521.871L522.861 46.5005H515.391V13.4805H515.371Z" fill="white"/>
<path d="M479.619 73.06L468.149 75.48C468.519 75.4 468.899 75.52 469.159 75.78C469.429 76.05 469.539 76.43 469.459 76.79L471.879 65.31C471.949 65 471.879 64.68 471.689 64.43C460.319 48.75 462.029 27.41 475.739 13.7C483.149 6.29 492.999 2.21 503.479 2.21C513.959 2.21 523.809 6.29 531.219 13.7C546.519 29 546.519 53.89 531.219 69.19C517.499 82.91 496.169 84.61 480.489 73.24C480.239 73.06 479.919 72.99 479.609 73.05L479.619 73.06ZM532.789 70.76C540.619 62.93 544.929 52.52 544.929 41.45C544.929 30.38 540.619 19.97 532.789 12.14C524.959 4.31 514.549 0 503.479 0C492.409 0 481.999 4.31 474.169 12.14C459.679 26.63 457.879 49.18 469.889 65.75C469.709 65.5 469.639 65.18 469.699 64.87L467.279 76.34C467.199 76.71 467.319 77.09 467.579 77.35C467.839 77.62 468.229 77.73 468.589 77.65L480.059 75.23C479.749 75.29 479.429 75.23 479.179 75.04C495.749 87.05 518.289 85.25 532.789 70.76Z" fill="white"/>
<path d="M38.57 17.7407L17.23 40.7307L40.36 64.9607V65.5107H29.17L9.06 44.2407V65.5107H0V17.4707H9.06V37.7807L27.32 17.4707H38.57V17.7407Z" fill="white"/>
<path d="M76.5284 17.4004H85.5884V65.5104H79.9584V65.5804L54.7084 33.1104V65.5104H45.6484V17.4704H52.9884L76.5284 47.2504V17.4004Z" fill="white"/>
<path d="M200.631 65.5107H192.941L186.971 50.4107L181.891 35.2407L176.881 50.5507L171.041 65.5107H163.351L145.711 17.4707H155.871L167.201 52.1307L178.871 17.4707H184.771L196.781 52.1307L207.761 17.4707H217.931L200.631 65.5107Z" fill="white"/>
<path d="M230.611 17.4707V57.1407H255.321V65.5107H221.551V17.4707H230.611Z" fill="white"/>
<path d="M297.53 65.5107H261.57V17.4707H297.53V26.2507H270.56V37.3007H290.7V45.7407H270.56V56.5907H297.53V65.5107Z" fill="white"/>
<path d="M312.902 56.7907H322.792C333.702 56.7907 338.032 48.8307 337.822 41.0107C337.612 33.5207 333.222 26.0507 322.792 26.0507H312.902V56.7907V56.7907ZM346.812 41.0707C347.012 53.2207 339.602 65.5107 322.792 65.5107H303.922V17.4707H322.792C339.262 17.4707 346.612 29.2007 346.812 41.0707Z" fill="white"/>
<path d="M388.479 29.1996C385.249 26.1196 380.449 24.3996 376.259 24.3996C365.959 24.3996 359.719 32.2296 359.719 42.1096C359.719 50.0096 364.319 58.1696 376.259 58.1696C380.029 58.1696 383.329 57.3396 387.099 54.3296V45.8196H374.819V37.7196H395.409V57.9696C390.669 63.3896 384.699 66.6196 376.259 66.6196C358.209 66.6196 350.859 54.7396 350.859 42.1096C350.859 28.5896 359.299 16.0996 376.259 16.0996C382.709 16.0996 389.159 18.5696 394.109 23.4396L388.479 29.1996V29.1996Z" fill="white"/>
<path d="M438.64 65.5107H402.68V17.4707H438.64V26.2507H411.67V37.3007H431.81V45.7407H411.67V56.5907H438.64V65.5107Z" fill="white"/>
<path d="M118.038 57.5404C108.598 57.5404 100.958 49.8904 100.958 40.4504C100.958 31.0104 108.608 23.3604 118.038 23.3604C127.478 23.3604 135.118 31.0104 135.118 40.4504C135.118 49.8904 127.468 57.5404 118.038 57.5404V57.5404ZM118.038 15.4004C104.198 15.4004 92.9883 26.6204 92.9883 40.4504C92.9883 54.2904 104.208 65.5004 118.038 65.5004C131.878 65.5004 143.088 54.2804 143.088 40.4504C143.088 26.6104 131.868 15.4004 118.038 15.4004" fill="white"/>
<path d="M261.571 14.0898C259.711 14.0898 258.191 15.5998 258.191 17.4698C258.191 19.3398 259.701 20.8498 261.571 20.8498C263.431 20.8498 264.951 19.3298 264.951 17.4698C264.951 15.6098 263.441 14.0898 261.571 14.0898ZM263.501 17.4698C263.501 18.5398 262.631 19.3998 261.571 19.3998C260.511 19.3998 259.641 18.5298 259.641 17.4698C259.641 16.4098 260.511 15.5398 261.571 15.5398C262.631 15.5398 263.501 16.4098 263.501 17.4698Z" fill="#121417"/>
<path d="M260.852 51.0208V53.1408C260.852 53.5408 261.172 53.8608 261.572 53.8608C261.972 53.8608 262.292 53.5408 262.292 53.1408V51.0208C262.292 50.6208 261.972 50.3008 261.572 50.3008C261.172 50.3008 260.852 50.6208 260.852 51.0208Z" fill="#121417"/>
<path d="M264.232 18.19H276.272C276.672 18.19 276.992 17.87 276.992 17.47C276.992 17.07 276.672 16.75 276.272 16.75H264.232C263.832 16.75 263.512 17.07 263.512 17.47C263.512 17.87 263.832 18.19 264.232 18.19Z" fill="#121417"/>
<path d="M45.6495 14.0898C43.7895 14.0898 42.2695 15.5998 42.2695 17.4698C42.2695 19.3398 43.7795 20.8498 45.6495 20.8498C47.5195 20.8498 49.0295 19.3298 49.0295 17.4698C49.0295 15.6098 47.5195 14.0898 45.6495 14.0898ZM47.5795 17.4698C47.5795 18.5398 46.7095 19.3998 45.6495 19.3998C44.5895 19.3998 43.7195 18.5298 43.7195 17.4698C43.7195 16.4098 44.5895 15.5398 45.6495 15.5398C46.7095 15.5398 47.5795 16.4098 47.5795 17.4698Z" fill="#121417"/>
<path d="M44.9219 20.1204V37.9804C44.9219 38.3804 45.2419 38.7004 45.6419 38.7004C46.0419 38.7004 46.3619 38.3804 46.3619 37.9804V20.1204C46.3619 19.7204 46.0419 19.4004 45.6419 19.4004C45.2419 19.4004 44.9219 19.7204 44.9219 20.1204Z" fill="#121417"/>
<path d="M44.9219 43.2298V53.1398C44.9219 53.5398 45.2419 53.8598 45.6419 53.8598C46.0419 53.8598 46.3619 53.5398 46.3619 53.1398V43.2298C46.3619 42.8298 46.0419 42.5098 45.6419 42.5098C45.2419 42.5098 44.9219 42.8298 44.9219 43.2298" fill="#121417"/>
<path d="M62.4913 30.65L68.6413 38.42C68.8913 38.73 69.3413 38.79 69.6513 38.54C69.9613 38.29 70.0213 37.84 69.7713 37.53L63.6213 29.75C63.3713 29.44 62.9213 29.38 62.6113 29.63C62.3013 29.88 62.2413 30.33 62.4913 30.64" fill="#121417"/>
<path d="M48.2981 18.19H53.2481C53.6481 18.19 53.9681 17.87 53.9681 17.47C53.9681 17.07 53.6481 16.75 53.2481 16.75H48.2981C47.8981 16.75 47.5781 17.07 47.5781 17.47C47.5781 17.87 47.8981 18.19 48.2981 18.19Z" fill="#121417"/>
<path d="M435.191 37.2999C435.191 35.4399 433.681 33.9199 431.821 33.9199C429.961 33.9199 428.441 35.4299 428.441 37.2999C428.441 39.1699 429.961 40.6799 431.821 40.6799C433.681 40.6799 435.191 39.1699 435.191 37.2999ZM431.821 39.2299C430.761 39.2299 429.891 38.3599 429.891 37.2999C429.891 36.2399 430.761 35.3699 431.821 35.3699C432.881 35.3699 433.751 36.2399 433.751 37.2999C433.751 38.3599 432.881 39.2299 431.821 39.2299Z" fill="#121417"/>
<path d="M429.158 36.5801H419.048C418.648 36.5801 418.328 36.9001 418.328 37.3001C418.328 37.7001 418.648 38.0201 419.048 38.0201H429.158C429.558 38.0201 429.878 37.7001 429.878 37.3001C429.878 36.9001 429.558 36.5801 429.158 36.5801Z" fill="#121417"/>
<path d="M413.789 36.5801H411.669C411.269 36.5801 410.949 36.9001 410.949 37.3001C410.949 37.7001 411.269 38.0201 411.669 38.0201H413.789C414.189 38.0201 414.509 37.7001 414.509 37.3001C414.509 36.9001 414.189 36.5801 413.789 36.5801Z" fill="#121417"/>
<path d="M374.821 49.1895C376.681 49.1895 378.201 47.6795 378.201 45.8195C378.201 43.9595 376.691 42.4395 374.821 42.4395C372.951 42.4395 371.441 43.9595 371.441 45.8195C371.441 47.6795 372.951 49.1895 374.821 49.1895ZM372.891 45.8195C372.891 44.7595 373.761 43.8895 374.821 43.8895C375.881 43.8895 376.751 44.7595 376.751 45.8195C376.751 46.8795 375.881 47.7495 374.821 47.7495C373.761 47.7495 372.891 46.8795 372.891 45.8195Z" fill="#121417"/>
<path d="M375.542 43.1602V37.7102C375.542 37.3102 375.222 36.9902 374.822 36.9902C374.422 36.9902 374.102 37.3102 374.102 37.7102V43.1602C374.102 43.5602 374.422 43.8802 374.822 43.8802C375.222 43.8802 375.542 43.5602 375.542 43.1602Z" fill="#121417"/>
<path d="M377.482 46.5298H382.932C383.332 46.5298 383.652 46.2098 383.652 45.8098C383.652 45.4098 383.332 45.0898 382.932 45.0898H377.482C377.082 45.0898 376.762 45.4098 376.762 45.8098C376.762 46.2098 377.082 46.5298 377.482 46.5298Z" fill="#121417"/>
<path d="M303.921 67.4389C302.861 67.4389 301.991 66.5689 301.991 65.5089C301.991 64.4489 302.861 63.5789 303.921 63.5789C304.981 63.5789 305.851 64.4489 305.851 65.5089C305.851 66.5689 304.981 67.4389 303.921 67.4389ZM307.301 65.5089C307.301 63.6489 305.791 62.1289 303.921 62.1289C302.051 62.1289 300.551 63.6489 300.551 65.5089C300.551 67.3689 302.061 68.8789 303.921 68.8789C305.781 68.8789 307.301 67.3689 307.301 65.5089Z" fill="#121417"/>
<path d="M304.639 62.8598V48.8098C304.639 48.4098 304.319 48.0898 303.919 48.0898C303.519 48.0898 303.199 48.4098 303.199 48.8098V62.8598C303.199 63.2598 303.519 63.5798 303.919 63.5798C304.319 63.5798 304.639 63.2598 304.639 62.8598Z" fill="#121417"/>
<path d="M304.639 43.5607V32.6907C304.639 32.2907 304.319 31.9707 303.919 31.9707C303.519 31.9707 303.199 32.2907 303.199 32.6907V43.5607C303.199 43.9607 303.519 44.2807 303.919 44.2807C304.319 44.2807 304.639 43.9607 304.639 43.5607Z" fill="#121417"/>
<path d="M306.572 66.2291H312.842C313.242 66.2291 313.562 65.9091 313.562 65.5091C313.562 65.1091 313.242 64.7891 312.842 64.7891H306.572C306.172 64.7891 305.852 65.1091 305.852 65.5091C305.852 65.9091 306.172 66.2291 306.572 66.2291Z" fill="#121417"/>
<path d="M118.25 56.7793C113.06 55.2193 109.29 48.3393 109.29 40.4193C109.29 32.4993 113.06 25.6193 118.25 24.0593C118.63 23.9493 118.85 23.5393 118.73 23.1593C118.62 22.7793 118.21 22.5593 117.83 22.6793C111.95 24.4493 107.84 31.7393 107.84 40.4193C107.84 49.0993 111.95 56.3893 117.83 58.1593C118.21 58.2693 118.61 58.0593 118.73 57.6793C118.84 57.2993 118.63 56.8993 118.25 56.7793Z" fill="#121417"/>
<path d="M118.249 58.1693C124.129 56.3993 128.239 49.1093 128.239 40.4293C128.239 31.7493 124.129 24.4493 118.249 22.6893C117.869 22.5793 117.469 22.7893 117.349 23.1693C117.239 23.5493 117.449 23.9493 117.829 24.0693C123.019 25.6293 126.789 32.5093 126.789 40.4293C126.789 48.3493 123.019 55.2293 117.829 56.7893C117.449 56.8993 117.229 57.3093 117.349 57.6893C117.459 58.0693 117.869 58.2893 118.249 58.1693" fill="#121417"/>
<path d="M117.32 23.3704V57.4704C117.32 57.8704 117.64 58.1904 118.04 58.1904C118.44 58.1904 118.76 57.8704 118.76 57.4704V23.3704C118.76 22.9704 118.44 22.6504 118.04 22.6504C117.64 22.6504 117.32 22.9704 117.32 23.3704Z" fill="#121417"/>
<path d="M100.99 41.149H135.09C135.49 41.149 135.81 40.829 135.81 40.429C135.81 40.029 135.49 39.709 135.09 39.709H100.99C100.59 39.709 100.27 40.029 100.27 40.429C100.27 40.829 100.59 41.149 100.99 41.149" fill="#121417"/>
<path d="M128.731 27.189C126.161 30.549 122.271 32.469 118.051 32.469C113.831 32.469 109.931 30.539 107.361 27.189C107.121 26.869 106.671 26.809 106.351 27.059C106.031 27.299 105.971 27.759 106.221 28.069C109.061 31.789 113.381 33.919 118.051 33.919C122.721 33.919 127.041 31.789 129.881 28.069C130.121 27.749 130.061 27.299 129.751 27.059C129.431 26.819 128.981 26.879 128.741 27.189" fill="#121417"/>
<path d="M129.87 52.7895C127.02 49.0695 122.71 46.9395 118.04 46.9395C113.37 46.9395 109.05 49.0695 106.21 52.7895C105.97 53.1095 106.03 53.5595 106.34 53.7995C106.66 54.0395 107.11 53.9795 107.35 53.6595C109.92 50.2995 113.81 48.3795 118.03 48.3795C122.25 48.3795 126.15 50.3095 128.72 53.6595C128.96 53.9795 129.42 54.0395 129.73 53.7995C130.05 53.5595 130.11 53.0995 129.86 52.7895" fill="#121417"/>
<path d="M118.04 58.2002C122.79 58.2002 127.25 56.3502 130.61 53.0002C133.97 49.6402 135.82 45.1802 135.82 40.4302C135.82 35.6802 133.97 31.2202 130.61 27.8602C127.25 24.5002 122.79 22.6602 118.04 22.6602C108.24 22.6602 100.27 30.6302 100.27 40.4302C100.27 45.1802 102.12 49.6402 105.48 53.0002C108.84 56.3602 113.3 58.2002 118.05 58.2002H118.04ZM101.72 40.4302C101.72 31.4302 109.05 24.1002 118.05 24.1002C122.41 24.1002 126.51 25.8002 129.6 28.8802C132.68 31.9602 134.38 36.0602 134.38 40.4302C134.38 44.8002 132.68 48.8902 129.6 51.9802C126.52 55.0602 122.42 56.7602 118.05 56.7602C113.68 56.7602 109.59 55.0602 106.51 51.9802C103.43 48.9002 101.73 44.7902 101.73 40.4302" fill="#121417"/>
</svg>
