<svg width="10" height="13" viewBox="0 0 10 13" fill="none" xmlns="http://www.w3.org/2000/svg">
<path d="M1.875 0C2.37228 0 2.84919 0.228273 3.20083 0.634602C3.55246 1.04093 3.75 1.59203 3.75 2.16667V10.8333C3.75 11.408 3.55246 11.9591 3.20083 12.3654C2.84919 12.7717 2.37228 13 1.875 13C1.37772 13 0.900805 12.7717 0.549175 12.3654C0.197544 11.9591 1.04794e-08 11.408 0 10.8333V2.16667C0 1.59203 0.197544 1.04093 0.549175 0.634602C0.900805 0.228273 1.37772 0 1.875 0V0ZM8.125 0C8.62228 0 9.09919 0.228273 9.45083 0.634602C9.80246 1.04093 10 1.59203 10 2.16667V10.8333C10 11.408 9.80246 11.9591 9.45083 12.3654C9.09919 12.7717 8.62228 13 8.125 13C7.62772 13 7.15081 12.7717 6.79917 12.3654C6.44754 11.9591 6.25 11.408 6.25 10.8333V2.16667C6.25 1.59203 6.44754 1.04093 6.79917 0.634602C7.15081 0.228273 7.62772 0 8.125 0Z" fill="white"/>
</svg>
