<svg width="55" height="49" viewBox="0 0 55 49" fill="none" xmlns="http://www.w3.org/2000/svg">
<path d="M53.9577 27.1819C52.1815 24.5057 50.4054 21.8295 48.634 19.1533C47.4371 17.3436 45.0817 16.568 43.1332 17.7122C42.9847 17.7984 42.8411 17.9037 42.7071 18.0091C40.0692 19.6512 37.4312 21.2981 34.7933 22.9402C30.408 25.6691 34.4438 32.6301 38.8531 29.8868C39.0398 29.7719 39.2218 29.657 39.4085 29.5421C36.7514 37.3266 28.3972 42.3583 19.8946 39.9693C9.99888 37.1926 5.21617 25.444 10.3675 16.5489C13.2592 11.5555 18.5206 8.61599 24.256 8.52024C29.4265 8.43886 29.4409 0.391075 24.256 0.47725C8.63444 0.730987 -3.21461 15.7589 1.07977 31.0454C5.27841 46.0063 23.2076 53.245 36.5839 45.226C41.8022 42.0997 45.4886 37.1638 47.2169 31.5194C48.4616 33.128 50.6735 33.7743 52.5214 32.6923C54.3167 31.6439 55.1689 29.0059 53.9625 27.1915L53.9577 27.1819Z" fill="white"/>
</svg>
