<svg width="26" height="26" viewBox="0 0 26 26" fill="none" xmlns="http://www.w3.org/2000/svg">
<path d="M13 0C5.82109 0 0 5.8211 0 13C0 20.1789 5.82109 26 13 26C20.1789 26 26 20.1789 26 13C26 5.8211 20.1789 0 13 0V0Z" fill="white"/>
<path d="M13.9451 23.4722C19.7303 22.9508 23.9974 17.8383 23.476 12.0532C22.9546 6.26801 17.8421 2.00089 12.057 2.52229C6.27182 3.04369 2.00471 8.15616 2.52611 13.9413C3.04751 19.7265 8.15997 23.9936 13.9451 23.4722Z" fill="black"/>
<path d="M13.9451 23.4722C19.7303 22.9508 23.9974 17.8383 23.476 12.0532C22.9546 6.26801 17.8421 2.00089 12.057 2.52229C6.27182 3.04369 2.00471 8.15616 2.52611 13.9413C3.04751 19.7265 8.15997 23.9936 13.9451 23.4722Z" fill="black"/>
<path d="M8.08068 10.6071H6.9514C6.4271 10.6071 6.00586 11.0283 6.00586 11.5526V14.1114C6.00586 14.6357 6.4271 15.057 6.9514 15.057H8.06724C8.27337 15.057 8.47055 15.1242 8.63635 15.2452C9.25028 15.7067 10.8546 16.9211 12.0735 17.8443C12.6964 18.3148 13.5881 17.8712 13.5881 17.0869V8.64434C13.5881 7.86909 12.7053 7.42097 12.0824 7.88253L8.64531 10.4189C8.48399 10.5399 8.28681 10.6026 8.08516 10.6026L8.08068 10.6071Z" fill="white"/>
<path d="M18.1771 10.7448L17.245 11.6769L16.3129 10.7448C15.95 10.3818 15.354 10.3818 14.991 10.7448C14.628 11.1077 14.628 11.7037 14.991 12.0667L15.9231 12.9988L14.991 13.9309C14.628 14.2939 14.628 14.8899 14.991 15.2529C15.354 15.6158 15.95 15.6158 16.3129 15.2529L17.245 14.3208L18.1771 15.2529C18.5401 15.6158 19.1361 15.6158 19.4991 15.2529C19.8621 14.8899 19.8621 14.2939 19.4991 13.9309L18.567 12.9988L19.4991 12.0667C19.8621 11.7037 19.8621 11.1077 19.4991 10.7448C19.1361 10.3818 18.5401 10.3818 18.1771 10.7448V10.7448Z" fill="white"/>
</svg>
