<svg width="202" height="31" viewBox="0 0 202 31" fill="none" xmlns="http://www.w3.org/2000/svg">
<path d="M186.658 8.47434V17.3744H179.288L186.658 8.47434ZM191.043 5.03687H186.873L176.063 18.0507V19.8927H186.658V22.8407C186.658 23.7599 185.409 24.2232 182.914 24.2232V25.9718H193.816V24.2232C191.97 24.2232 191.047 23.7636 191.047 22.8407V19.8927H193.453L193.819 17.3744H191.05V5.03687H191.043Z" fill="white"/>
<path d="M177.79 27.298L173.538 28.2022C173.676 28.1723 173.816 28.2171 173.913 28.3143C174.013 28.4151 174.054 28.5571 174.024 28.6916L174.921 24.4023C174.947 24.2864 174.921 24.1669 174.851 24.0735C170.636 18.2148 171.27 10.2414 176.352 5.11884C179.099 2.35018 182.75 0.825739 186.635 0.825739C190.52 0.825739 194.171 2.35018 196.918 5.11884C202.59 10.8355 202.59 20.1353 196.918 25.852C191.832 30.9783 183.925 31.6135 178.113 27.3652C178.02 27.298 177.901 27.2718 177.786 27.2942L177.79 27.298ZM197.5 26.4386C200.402 23.513 202 19.6235 202 15.4873C202 11.3511 200.402 7.46154 197.5 4.53596C194.597 1.61038 190.738 0 186.635 0C182.531 0 178.672 1.61038 175.77 4.53596C170.399 9.94997 169.731 18.3755 174.183 24.5667C174.117 24.4733 174.091 24.3537 174.113 24.2379L173.216 28.5235C173.186 28.6617 173.231 28.8037 173.327 28.9009C173.423 29.0018 173.568 29.0429 173.701 29.013L177.953 28.1088C177.838 28.1312 177.72 28.1088 177.627 28.0378C183.769 32.5252 192.125 31.8526 197.5 26.4386Z" fill="white"/>
<path d="M14.2975 6.62823L6.387 15.2182L14.9611 24.2714V24.4769H10.813L3.35846 16.5296V24.4769H0V6.52734H3.35846V14.1159L10.1273 6.52734H14.2975V6.62823Z" fill="white"/>
<path d="M28.3691 6.50122H31.7276V24.4769H29.6406V24.5031L20.2806 12.3711V24.4769H16.9222V6.52738H19.643L28.3691 17.6543V6.50122Z" fill="white"/>
<path d="M74.3716 24.4769H71.521L69.308 18.835L67.4249 13.1669L65.5677 18.8873L63.4029 24.4769H60.5523L54.0133 6.52734H57.7795L61.9794 19.4776L66.3054 6.52734H68.4925L72.9445 19.4776L77.0146 6.52734H80.7846L74.3716 24.4769Z" fill="white"/>
<path d="M85.4848 6.52734V21.3495H94.6446V24.4769H82.1263V6.52734H85.4848Z" fill="white"/>
<path d="M110.292 24.4769H96.9616V6.52734H110.292V9.80788H100.294V13.9366H107.76V17.0901H100.294V21.144H110.292V24.4769Z" fill="white"/>
<path d="M115.989 21.2188H119.655C123.699 21.2188 125.304 18.2446 125.227 15.3228C125.149 12.5242 123.521 9.73315 119.655 9.73315H115.989V21.2188ZM128.559 15.3452C128.633 19.8849 125.886 24.4769 119.655 24.4769H112.66V6.52734H119.655C125.76 6.52734 128.485 10.9101 128.559 15.3452Z" fill="white"/>
<path d="M144.006 10.91C142.809 9.75923 141.029 9.11657 139.476 9.11657C135.658 9.11657 133.345 12.0422 133.345 15.7337C133.345 18.6854 135.05 21.7343 139.476 21.7343C140.874 21.7343 142.097 21.4242 143.494 20.2996V17.1199H138.942V14.0934H146.575V21.6596C144.818 23.6847 142.605 24.8916 139.476 24.8916C132.785 24.8916 130.061 20.4527 130.061 15.7337C130.061 10.6821 133.189 6.01538 139.476 6.01538C141.867 6.01538 144.258 6.93827 146.093 8.75788L144.006 10.91Z" fill="white"/>
<path d="M162.6 24.4769H149.27V6.52734H162.6V9.80788H152.602V13.9366H160.068V17.0901H152.602V21.144H162.6V24.4769Z" fill="white"/>
<path d="M43.7564 21.499C40.2571 21.499 37.425 18.6407 37.425 15.1135C37.425 11.5864 40.2608 8.72806 43.7564 8.72806C47.2557 8.72806 50.0878 11.5864 50.0878 15.1135C50.0878 18.6407 47.252 21.499 43.7564 21.499ZM43.7564 5.75391C38.626 5.75391 34.4706 9.94612 34.4706 15.1135C34.4706 20.2847 38.6297 24.4731 43.7564 24.4731C48.8867 24.4731 53.0422 20.2809 53.0422 15.1135C53.0422 9.94238 48.883 5.75391 43.7564 5.75391Z" fill="white"/>
<path d="M96.9617 5.2644C96.2722 5.2644 95.7087 5.8286 95.7087 6.5273C95.7087 7.226 96.2685 7.7902 96.9617 7.7902C97.6511 7.7902 98.2146 7.22227 98.2146 6.5273C98.2146 5.83233 97.6548 5.2644 96.9617 5.2644ZM97.6771 6.5273C97.6771 6.92709 97.3546 7.24842 96.9617 7.24842C96.5687 7.24842 96.2462 6.92336 96.2462 6.5273C96.2462 6.13124 96.5687 5.80618 96.9617 5.80618C97.3546 5.80618 97.6771 6.13124 97.6771 6.5273Z" fill="#121417"/>
<path d="M96.6945 19.0627V19.8548C96.6945 20.0043 96.8131 20.1239 96.9614 20.1239C97.1097 20.1239 97.2283 20.0043 97.2283 19.8548V19.0627C97.2283 18.9133 97.1097 18.7937 96.9614 18.7937C96.8131 18.7937 96.6945 18.9133 96.6945 19.0627Z" fill="#121417"/>
<path d="M97.9474 6.79634H102.411C102.559 6.79634 102.677 6.67678 102.677 6.52732C102.677 6.37787 102.559 6.2583 102.411 6.2583H97.9474C97.7992 6.2583 97.6805 6.37787 97.6805 6.52732C97.6805 6.67678 97.7992 6.79634 97.9474 6.79634Z" fill="#121417"/>
<path d="M16.9218 5.2644C16.2323 5.2644 15.6689 5.8286 15.6689 6.5273C15.6689 7.226 16.2286 7.7902 16.9218 7.7902C17.615 7.7902 18.1747 7.22227 18.1747 6.5273C18.1747 5.83233 17.615 5.2644 16.9218 5.2644ZM17.6372 6.5273C17.6372 6.92709 17.3147 7.24842 16.9218 7.24842C16.5289 7.24842 16.2064 6.92336 16.2064 6.5273C16.2064 6.13124 16.5289 5.80618 16.9218 5.80618C17.3147 5.80618 17.6372 6.13124 17.6372 6.5273Z" fill="#121417"/>
<path d="M16.6514 7.51755V14.1907C16.6514 14.3402 16.77 14.4597 16.9183 14.4597C17.0665 14.4597 17.1852 14.3402 17.1852 14.1907V7.51755C17.1852 7.3681 17.0665 7.24854 16.9183 7.24854C16.77 7.24854 16.6514 7.3681 16.6514 7.51755Z" fill="#121417"/>
<path d="M16.6514 16.1523V19.8551C16.6514 20.0045 16.77 20.1241 16.9183 20.1241C17.0665 20.1241 17.1852 20.0045 17.1852 19.8551V16.1523C17.1852 16.0029 17.0665 15.8833 16.9183 15.8833C16.77 15.8833 16.6514 16.0029 16.6514 16.1523Z" fill="#121417"/>
<path d="M23.1646 11.4519L25.4443 14.355C25.537 14.4709 25.7038 14.4933 25.8187 14.3999C25.9336 14.3065 25.9559 14.1383 25.8632 14.0225L23.5835 11.1156C23.4908 10.9998 23.324 10.9773 23.2091 11.0708C23.0942 11.1642 23.0719 11.3323 23.1646 11.4481" fill="#121417"/>
<path d="M17.9043 6.79634H19.7393C19.8875 6.79634 20.0061 6.67678 20.0061 6.52732C20.0061 6.37787 19.8875 6.2583 19.7393 6.2583H17.9043C17.7561 6.2583 17.6375 6.37787 17.6375 6.52732C17.6375 6.67678 17.7561 6.79634 17.9043 6.79634Z" fill="#121417"/>
<path d="M161.321 13.9365C161.321 13.2415 160.761 12.6736 160.072 12.6736C159.382 12.6736 158.819 13.2378 158.819 13.9365C158.819 14.6352 159.382 15.1994 160.072 15.1994C160.761 15.1994 161.321 14.6352 161.321 13.9365ZM160.072 14.6576C159.679 14.6576 159.356 14.3325 159.356 13.9365C159.356 13.5404 159.679 13.2154 160.072 13.2154C160.465 13.2154 160.787 13.5404 160.787 13.9365C160.787 14.3325 160.465 14.6576 160.072 14.6576Z" fill="#121417"/>
<path d="M159.085 13.6675H155.338C155.19 13.6675 155.071 13.787 155.071 13.9365C155.071 14.086 155.19 14.2055 155.338 14.2055H159.085C159.234 14.2055 159.352 14.086 159.352 13.9365C159.352 13.787 159.234 13.6675 159.085 13.6675Z" fill="#121417"/>
<path d="M153.388 13.6675H152.602C152.454 13.6675 152.335 13.787 152.335 13.9365C152.335 14.086 152.454 14.2055 152.602 14.2055H153.388C153.536 14.2055 153.655 14.086 153.655 13.9365C153.655 13.787 153.536 13.6675 153.388 13.6675Z" fill="#121417"/>
<path d="M138.942 18.379C139.632 18.379 140.195 17.8148 140.195 17.1198C140.195 16.4249 139.636 15.8569 138.942 15.8569C138.249 15.8569 137.689 16.4249 137.689 17.1198C137.689 17.8148 138.249 18.379 138.942 18.379ZM138.227 17.1198C138.227 16.7238 138.549 16.3987 138.942 16.3987C139.335 16.3987 139.658 16.7238 139.658 17.1198C139.658 17.5159 139.335 17.8409 138.942 17.8409C138.549 17.8409 138.227 17.5159 138.227 17.1198Z" fill="#121417"/>
<path d="M139.209 16.1262V14.0898C139.209 13.9404 139.09 13.8208 138.942 13.8208C138.794 13.8208 138.675 13.9404 138.675 14.0898V16.1262C138.675 16.2756 138.794 16.3952 138.942 16.3952C139.09 16.3952 139.209 16.2756 139.209 16.1262Z" fill="#121417"/>
<path d="M139.928 17.3852H141.948C142.097 17.3852 142.215 17.2656 142.215 17.1162C142.215 16.9667 142.097 16.8472 141.948 16.8472H139.928C139.78 16.8472 139.661 16.9667 139.661 17.1162C139.661 17.2656 139.78 17.3852 139.928 17.3852Z" fill="#121417"/>
<path d="M112.66 25.1979C112.267 25.1979 111.945 24.8728 111.945 24.4768C111.945 24.0807 112.267 23.7556 112.66 23.7556C113.053 23.7556 113.376 24.0807 113.376 24.4768C113.376 24.8728 113.053 25.1979 112.66 25.1979ZM113.913 24.4768C113.913 23.7818 113.353 23.2139 112.66 23.2139C111.967 23.2139 111.411 23.7818 111.411 24.4768C111.411 25.1717 111.971 25.7359 112.66 25.7359C113.35 25.7359 113.913 25.1717 113.913 24.4768Z" fill="#121417"/>
<path d="M112.927 23.4866V18.237C112.927 18.0876 112.809 17.968 112.66 17.968C112.512 17.968 112.393 18.0876 112.393 18.237V23.4866C112.393 23.6361 112.512 23.7557 112.66 23.7557C112.809 23.7557 112.927 23.6361 112.927 23.4866Z" fill="#121417"/>
<path d="M112.927 16.2755V12.2141C112.927 12.0646 112.809 11.9451 112.66 11.9451C112.512 11.9451 112.393 12.0646 112.393 12.2141V16.2755C112.393 16.425 112.512 16.5445 112.66 16.5445C112.809 16.5445 112.927 16.425 112.927 16.2755Z" fill="#121417"/>
<path d="M113.642 24.7458H115.967C116.115 24.7458 116.234 24.6262 116.234 24.4768C116.234 24.3273 116.115 24.2078 115.967 24.2078H113.642C113.494 24.2078 113.376 24.3273 113.376 24.4768C113.376 24.6262 113.494 24.7458 113.642 24.7458Z" fill="#121417"/>
<path d="M43.8341 21.215C41.9102 20.6321 40.5127 18.0615 40.5127 15.1023C40.5127 12.1431 41.9102 9.57243 43.8341 8.98956C43.975 8.94846 44.0565 8.79527 44.012 8.65328C43.9713 8.5113 43.8193 8.4291 43.6784 8.47394C41.4988 9.13528 39.9752 11.8591 39.9752 15.1023C39.9752 18.3454 41.4988 21.0693 43.6784 21.7306C43.8193 21.7717 43.9676 21.6932 44.012 21.5513C44.0528 21.4093 43.975 21.2598 43.8341 21.215Z" fill="#121417"/>
<path d="M43.8343 21.7344C46.0139 21.073 47.5374 18.3492 47.5374 15.106C47.5374 11.8629 46.0139 9.1353 43.8343 8.4777C43.6934 8.4366 43.5451 8.51506 43.5006 8.65704C43.4599 8.79902 43.5377 8.94848 43.6786 8.99332C45.6024 9.57619 46.9999 12.1468 46.9999 15.106C46.9999 18.0652 45.6024 20.6359 43.6786 21.2187C43.5377 21.2598 43.4562 21.413 43.5006 21.555C43.5414 21.697 43.6934 21.7792 43.8343 21.7344Z" fill="#121417"/>
<path d="M43.4895 8.73167V21.4727C43.4895 21.6222 43.6081 21.7417 43.7564 21.7417C43.9047 21.7417 44.0233 21.6222 44.0233 21.4727V8.73167C44.0233 8.58221 43.9047 8.46265 43.7564 8.46265C43.6081 8.46265 43.4895 8.58221 43.4895 8.73167Z" fill="#121417"/>
<path d="M37.4358 15.3749H50.0764C50.2247 15.3749 50.3433 15.2554 50.3433 15.1059C50.3433 14.9565 50.2247 14.8369 50.0764 14.8369H37.4358C37.2876 14.8369 37.1689 14.9565 37.1689 15.1059C37.1689 15.2554 37.2876 15.3749 37.4358 15.3749Z" fill="#121417"/>
<path d="M47.719 10.1591C46.7663 11.4145 45.3244 12.1319 43.76 12.1319C42.1957 12.1319 40.75 11.4108 39.7974 10.1591C39.7084 10.0395 39.5416 10.0171 39.423 10.1105C39.3043 10.2002 39.2821 10.3721 39.3748 10.4879C40.4275 11.8778 42.0289 12.6737 43.76 12.6737C45.4912 12.6737 47.0926 11.8778 48.1453 10.4879C48.2343 10.3683 48.212 10.2002 48.0971 10.1105C47.9785 10.0208 47.8117 10.0433 47.7227 10.1591" fill="#121417"/>
<path d="M48.1415 19.7241C47.085 18.3342 45.4874 17.5383 43.7562 17.5383C42.0251 17.5383 40.4237 18.3342 39.371 19.7241C39.282 19.8437 39.3042 20.0118 39.4192 20.1015C39.5378 20.1912 39.7046 20.1688 39.7936 20.0492C40.7462 18.7938 42.1882 18.0764 43.7525 18.0764C45.3168 18.0764 46.7625 18.7975 47.7152 20.0492C47.8042 20.1688 47.9747 20.1912 48.0896 20.1015C48.2082 20.0118 48.2305 19.8399 48.1378 19.7241" fill="#121417"/>
<path d="M43.7561 21.7456C45.5169 21.7456 47.1702 21.0544 48.4157 19.8027C49.6612 18.5473 50.347 16.8809 50.347 15.1061C50.347 13.3313 49.6612 11.6649 48.4157 10.4095C47.1702 9.15405 45.5169 8.46655 43.7561 8.46655C40.1234 8.46655 37.1689 11.4444 37.1689 15.1061C37.1689 16.8809 37.8547 18.5473 39.1002 19.8027C40.3458 21.0581 41.999 21.7456 43.7598 21.7456H43.7561ZM37.7064 15.1061C37.7064 11.7434 40.4236 9.00459 43.7598 9.00459C45.376 9.00459 46.8959 9.63977 48.0413 10.7906C49.183 11.9414 49.8132 13.4733 49.8132 15.1061C49.8132 16.7389 49.183 18.2671 48.0413 19.4216C46.8996 20.5724 45.3797 21.2076 43.7598 21.2076C42.1399 21.2076 40.6238 20.5724 39.4821 19.4216C38.3403 18.2708 37.7102 16.7352 37.7102 15.1061" fill="#121417"/>
</svg>
