<svg width="37" height="26" viewBox="0 0 37 26" fill="none" xmlns="http://www.w3.org/2000/svg">
<g clip-path="url(#clip0_97_1355)">
<path d="M6.51905 25.1236H7.42904C7.44368 25.1219 7.45854 25.1234 7.47248 25.1279C7.48643 25.1324 7.4991 25.1398 7.50953 25.1496C7.51996 25.1594 7.52787 25.1713 7.53267 25.1844C7.53746 25.1975 7.53901 25.2115 7.5372 25.2253V25.8457C7.53901 25.8595 7.53746 25.8735 7.53267 25.8866C7.52787 25.8997 7.51996 25.9116 7.50953 25.9214C7.4991 25.9312 7.48643 25.9386 7.47248 25.9431C7.45854 25.9476 7.44368 25.9491 7.42904 25.9474H5.59414C5.57922 25.9497 5.56393 25.9487 5.5495 25.9445C5.53507 25.9402 5.52189 25.9329 5.51102 25.923C5.50015 25.9131 5.49188 25.901 5.48689 25.8876C5.48189 25.8742 5.48031 25.8598 5.48225 25.8457V22.4349C5.48045 22.4207 5.48211 22.4063 5.48709 22.3928C5.49208 22.3792 5.50027 22.3669 5.51104 22.3568C5.52181 22.3467 5.53488 22.339 5.54928 22.3343C5.56367 22.3296 5.57901 22.3281 5.59414 22.3298H7.36191C7.37704 22.3281 7.39237 22.3296 7.40677 22.3343C7.42116 22.339 7.43423 22.3467 7.44501 22.3568C7.45578 22.3669 7.46396 22.3792 7.46895 22.3928C7.47394 22.4063 7.47559 22.4207 7.47379 22.4349V23.0519C7.47499 23.0658 7.47289 23.0798 7.46764 23.0929C7.46239 23.106 7.45411 23.1178 7.44341 23.1276C7.43271 23.1373 7.41985 23.1447 7.40576 23.1492C7.39167 23.1536 7.37669 23.1551 7.36191 23.1535H6.51905C6.5004 23.1535 6.49294 23.1535 6.49294 23.1816V23.6688C6.49294 23.6688 6.49294 23.6969 6.51905 23.6969H7.30224C7.31688 23.6952 7.33173 23.6966 7.34568 23.7011C7.35963 23.7057 7.3723 23.7131 7.38273 23.7229C7.39316 23.7327 7.40107 23.7446 7.40586 23.7577C7.41066 23.7708 7.41221 23.7848 7.41039 23.7986V24.412C7.41221 24.4258 7.41066 24.4397 7.40586 24.4528C7.40107 24.4659 7.39316 24.4779 7.38273 24.4877C7.3723 24.4975 7.35963 24.5049 7.34568 24.5094C7.33173 24.5139 7.31688 24.5154 7.30224 24.5137H6.51905C6.5004 24.5137 6.49294 24.5137 6.49294 24.5417V25.0991C6.49227 25.1024 6.49249 25.1059 6.49356 25.1092C6.49464 25.1124 6.49654 25.1154 6.49911 25.1178C6.50168 25.1202 6.50484 25.122 6.50832 25.123C6.51179 25.124 6.51547 25.1242 6.51905 25.1236Z" fill="white"/>
<path d="M8.30173 25.8457V22.4349C8.29993 22.4207 8.30159 22.4063 8.30657 22.3928C8.31156 22.3792 8.31975 22.367 8.33052 22.3568C8.34129 22.3467 8.35436 22.339 8.36876 22.3343C8.38315 22.3296 8.39849 22.3281 8.41361 22.3298H9.43176C9.76812 22.3014 10.1042 22.3872 10.379 22.5716C10.6811 22.8205 10.8228 23.2727 10.8228 24.1351C10.8228 24.9063 10.7035 25.3655 10.4499 25.6284C10.312 25.7452 10.1492 25.8332 9.97241 25.8864C9.79559 25.9395 9.60875 25.9568 9.4243 25.9369H8.41361C8.39979 25.9383 8.3858 25.9371 8.37251 25.9332C8.35923 25.9293 8.34694 25.9229 8.33643 25.9144C8.32592 25.9058 8.31741 25.8953 8.31144 25.8835C8.30546 25.8717 8.30216 25.8588 8.30173 25.8457ZM9.3236 25.1131H9.45041C9.50443 25.1166 9.55841 25.106 9.60644 25.0825C9.65447 25.059 9.69468 25.0235 9.72266 24.9799C9.83096 24.7143 9.87306 24.4289 9.84573 24.1456C9.88091 23.8496 9.82933 23.5502 9.69655 23.2797C9.66628 23.2445 9.62746 23.2165 9.58334 23.1982C9.53922 23.1799 9.49108 23.1718 9.44295 23.1746H9.3236C9.31984 23.1745 9.31611 23.1753 9.31267 23.1767C9.30923 23.1782 9.30617 23.1803 9.30369 23.183C9.30121 23.1856 9.29937 23.1888 9.2983 23.1922C9.29723 23.1956 9.29696 23.1991 9.2975 23.2026V25.0886C9.2975 25.0918 9.29817 25.095 9.29948 25.098C9.3008 25.1009 9.30272 25.1036 9.30514 25.1059C9.30757 25.1082 9.31045 25.11 9.31361 25.1112C9.31678 25.1125 9.32018 25.1131 9.3236 25.1131Z" fill="white"/>
<path d="M11.9678 25.8073C11.8207 25.6953 11.7062 25.55 11.6351 25.3851C11.564 25.2202 11.5386 25.041 11.5613 24.8643V22.4351C11.5596 22.4212 11.5612 22.4071 11.5659 22.3938C11.5707 22.3806 11.5786 22.3685 11.5889 22.3585C11.5992 22.3484 11.6118 22.3406 11.6257 22.3357C11.6397 22.3307 11.6546 22.3288 11.6694 22.3299H12.4563C12.4712 22.3288 12.4861 22.3307 12.5 22.3357C12.5139 22.3406 12.5265 22.3484 12.5368 22.3585C12.5472 22.3685 12.555 22.3806 12.5598 22.3938C12.5646 22.4071 12.5662 22.4212 12.5645 22.4351V24.8538C12.5545 24.9395 12.5784 25.0256 12.6316 25.0957C12.6543 25.1173 12.6817 25.1339 12.7121 25.1442C12.7424 25.1545 12.7748 25.1583 12.8069 25.1553C12.8421 25.1592 12.8778 25.1545 12.9105 25.1416C12.9431 25.1287 12.9717 25.1081 12.9934 25.0817C13.0369 25.0131 13.0565 24.9334 13.0493 24.8538V22.4351C13.0476 22.4212 13.0492 22.4071 13.054 22.3938C13.0588 22.3806 13.0666 22.3685 13.0769 22.3585C13.0873 22.3484 13.0999 22.3406 13.1138 22.3357C13.1277 22.3307 13.1426 22.3288 13.1575 22.3299H13.9369C13.9517 22.3288 13.9667 22.3307 13.9806 22.3357C13.9945 22.3406 14.0071 22.3484 14.0174 22.3585C14.0278 22.3685 14.0356 22.3806 14.0404 22.3938C14.0452 22.4071 14.0468 22.4212 14.0451 22.4351V24.8538C14.0681 25.026 14.0462 25.2009 13.9812 25.3634C13.9162 25.5258 13.8101 25.671 13.6721 25.7863C13.4185 25.9364 13.1209 26.0076 12.8218 25.9896C12.524 26.0123 12.2259 25.9487 11.9678 25.8073Z" fill="white"/>
<path d="M14.7986 24.1456C14.7986 22.6138 15.2871 22.2913 16.1897 22.2913C16.3944 22.2942 16.5982 22.3177 16.7976 22.3614C16.8647 22.3614 16.8908 22.4069 16.8871 22.4771L16.8349 23.0695C16.8357 23.0838 16.8327 23.098 16.8263 23.111C16.8199 23.124 16.8102 23.1353 16.7981 23.144C16.7859 23.1526 16.7717 23.1583 16.7567 23.1606C16.7416 23.1629 16.7262 23.1617 16.7118 23.1571C16.5996 23.1406 16.486 23.1335 16.3724 23.1361C15.8354 23.1361 15.7943 23.4866 15.7943 24.1562C15.7943 24.8257 15.8354 25.1763 16.3724 25.1763C16.5103 25.1744 16.6476 25.1603 16.7827 25.1342C16.7973 25.1288 16.8131 25.1271 16.8287 25.129C16.8442 25.1309 16.859 25.1365 16.8717 25.1453C16.8843 25.154 16.8944 25.1656 16.901 25.179C16.9076 25.1924 16.9105 25.2071 16.9095 25.2218L16.9579 25.8142C16.9612 25.827 16.9615 25.8403 16.9588 25.8531C16.9562 25.866 16.9506 25.8782 16.9424 25.8888C16.9343 25.8995 16.9238 25.9083 16.9117 25.9148C16.8995 25.9213 16.8861 25.9253 16.8722 25.9264C16.6508 25.9746 16.4244 25.9993 16.1971 26C15.2909 26 14.7986 25.674 14.7986 24.1456Z" fill="white"/>
<path d="M17.5657 25.8353C17.644 25.1658 17.9088 23.5533 18.1438 22.421C18.1466 22.3981 18.1585 22.3771 18.1772 22.3621C18.1959 22.3471 18.22 22.3394 18.2445 22.3404H19.5759C19.6006 22.3401 19.6247 22.348 19.6439 22.3627C19.663 22.3775 19.6759 22.3982 19.6803 22.421C19.9153 23.5323 20.1652 25.1553 20.2397 25.8353C20.2408 25.8485 20.2389 25.8618 20.2344 25.8743C20.2298 25.8867 20.2226 25.8982 20.2132 25.9081C20.2038 25.9179 20.1924 25.9258 20.1796 25.9314C20.1669 25.937 20.1531 25.9401 20.139 25.9405H19.3521C19.3237 25.9406 19.2963 25.9305 19.2755 25.9122C19.2548 25.894 19.2421 25.869 19.2402 25.8424C19.2402 25.6531 19.2067 25.4533 19.1843 25.2464C19.1826 25.2403 19.1787 25.2348 19.1733 25.231C19.1679 25.2272 19.1612 25.2252 19.1545 25.2254H18.6473C18.6473 25.2254 18.6212 25.2254 18.6212 25.2464C18.595 25.4533 18.5764 25.6566 18.5578 25.8424C18.5573 25.8557 18.554 25.8688 18.5481 25.881C18.5422 25.8932 18.5338 25.9041 18.5235 25.9132C18.5131 25.9223 18.5009 25.9294 18.4876 25.9341C18.4742 25.9388 18.4601 25.941 18.4459 25.9405H17.6776C17.6626 25.9416 17.6476 25.9396 17.6335 25.9346C17.6194 25.9297 17.6066 25.922 17.596 25.912C17.5854 25.902 17.5772 25.89 17.572 25.8768C17.5667 25.8636 17.5646 25.8494 17.5657 25.8353ZM19.0575 24.4016C19.0617 24.4018 19.0658 24.401 19.0696 24.3994C19.0733 24.3977 19.0767 24.3953 19.0792 24.3922C19.0818 24.3891 19.0835 24.3855 19.0843 24.3816C19.085 24.3778 19.0848 24.3738 19.0836 24.3701C19.0389 24.0195 18.9866 23.6269 18.9344 23.2729H18.9009C18.8487 23.6234 18.7964 24.002 18.7442 24.3701C18.7437 24.374 18.7441 24.3781 18.7453 24.3819C18.7466 24.3857 18.7487 24.3892 18.7515 24.3922C18.7544 24.3952 18.7578 24.3976 18.7617 24.3992C18.7656 24.4008 18.7698 24.4017 18.7741 24.4016H19.0575Z" fill="white"/>
<path d="M20.8142 24.1456C20.8142 22.6138 21.299 22.2913 22.2053 22.2913C22.41 22.2944 22.6138 22.3179 22.8132 22.3614C22.8803 22.3614 22.9064 22.4069 22.9027 22.477L22.8505 23.0695C22.8513 23.0838 22.8484 23.098 22.842 23.111C22.8355 23.124 22.8258 23.1353 22.8137 23.144C22.8016 23.1526 22.7873 23.1583 22.7723 23.1606C22.7573 23.1629 22.7419 23.1617 22.7274 23.1571C22.6115 23.14 22.4942 23.1329 22.3769 23.1361C21.8398 23.1361 21.8025 23.4866 21.8025 24.1562C21.8025 24.8257 21.8398 25.1763 22.3769 25.1763C22.5131 25.1775 22.6492 25.167 22.7834 25.1447C22.798 25.1394 22.8138 25.1376 22.8294 25.1395C22.8449 25.1414 22.8597 25.147 22.8724 25.1558C22.885 25.1645 22.8951 25.1761 22.9017 25.1895C22.9083 25.2029 22.9112 25.2176 22.9102 25.2323L22.9587 25.8248C22.9619 25.8375 22.9622 25.8508 22.9596 25.8636C22.9569 25.8765 22.9513 25.8887 22.9431 25.8993C22.935 25.91 22.9245 25.9189 22.9124 25.9253C22.9002 25.9318 22.8868 25.9358 22.8729 25.9369C22.6515 25.9851 22.4251 26.0098 22.1978 26.0105C21.299 26 20.8142 25.674 20.8142 24.1456Z" fill="white"/>
<path d="M23.6523 25.8459V22.4351C23.6506 22.4212 23.6522 22.4071 23.6569 22.3938C23.6617 22.3806 23.6696 22.3685 23.6799 22.3585C23.6903 22.3484 23.7028 22.3406 23.7168 22.3357C23.7307 22.3307 23.7456 22.3288 23.7604 22.3299H24.5399C24.5547 22.3288 24.5697 22.3307 24.5836 22.3357C24.5975 22.3406 24.6101 22.3484 24.6204 22.3585C24.6308 22.3685 24.6386 22.3806 24.6434 22.3938C24.6482 22.4071 24.6498 22.4212 24.6481 22.4351V25.8354C24.6499 25.8491 24.6483 25.8631 24.6435 25.8762C24.6387 25.8893 24.6308 25.9012 24.6204 25.911C24.61 25.9208 24.5973 25.9283 24.5834 25.9328C24.5694 25.9373 24.5545 25.9387 24.5399 25.937H23.7604C23.7468 25.9385 23.733 25.9373 23.7199 25.9333C23.7068 25.9294 23.6947 25.923 23.6845 25.9143C23.6743 25.9057 23.6661 25.8952 23.6606 25.8834C23.655 25.8716 23.6522 25.8588 23.6523 25.8459Z" fill="white"/>
<path d="M25.834 25.7512C25.4835 25.4638 25.4126 24.9275 25.4126 24.1492C25.4126 23.371 25.4835 22.8978 25.7855 22.5998C25.9137 22.4891 26.0654 22.4053 26.2307 22.3539C26.3959 22.3025 26.5709 22.2848 26.744 22.3018C26.9182 22.285 27.0942 22.306 27.2584 22.3631C27.4226 22.4202 27.5707 22.512 27.6913 22.6314C27.971 22.9328 28.0419 23.4481 28.0419 24.1492C28.0419 24.9485 27.9598 25.4848 27.5943 25.7688C27.3393 25.9414 27.0274 26.0233 26.7142 26.0001C26.3978 26.0249 26.0833 25.936 25.834 25.7512ZM27.0386 24.7241C27.0386 24.4577 27.0386 24.3175 27.0386 24.1492C27.0386 23.981 27.0386 23.8443 27.0386 23.5778C27.0386 23.3114 26.9678 23.1362 26.7254 23.1362C26.483 23.1362 26.4233 23.2939 26.4121 23.5778C26.4009 23.8618 26.4121 23.9915 26.4121 24.1492C26.4121 24.307 26.4121 24.4577 26.4121 24.7241C26.4121 24.9906 26.4867 25.1623 26.7254 25.1623C26.9641 25.1623 27.0275 25.0081 27.0386 24.7241ZM26.4792 21.9969L26.6209 21.6008C26.6286 21.5752 26.6454 21.5529 26.6685 21.5375C26.6915 21.5222 26.7195 21.5148 26.7477 21.5166H27.3818C27.4713 21.5166 27.5048 21.5727 27.4489 21.6428L27.1543 22.0495C27.14 22.0706 27.1201 22.0878 27.0965 22.0995C27.073 22.1112 27.0466 22.1169 27.02 22.1161H26.5501C26.4792 22.1161 26.4345 22.0845 26.4792 21.9969Z" fill="white"/>
<path d="M28.8102 25.8459V22.4351C28.8085 22.4212 28.8101 22.4071 28.8149 22.3938C28.8197 22.3806 28.8275 22.3685 28.8379 22.3585C28.8482 22.3484 28.8608 22.3406 28.8747 22.3357C28.8886 22.3307 28.9036 22.3288 28.9184 22.3299H29.6643C29.6922 22.3293 29.7196 22.3372 29.7424 22.3523C29.7653 22.3675 29.7823 22.3891 29.7911 22.414L30.4363 23.9845C30.4363 24.009 30.4698 23.9845 30.4698 23.9845L30.4251 22.4351C30.4251 22.3614 30.4587 22.3299 30.5295 22.3299H31.3276C31.3425 22.3288 31.3574 22.3307 31.3713 22.3357C31.3852 22.3406 31.3978 22.3484 31.4081 22.3585C31.4185 22.3685 31.4263 22.3806 31.4311 22.3938C31.4359 22.4071 31.4375 22.4212 31.4358 22.4351V25.8354C31.4382 25.8494 31.4372 25.8637 31.4327 25.8773C31.4281 25.8909 31.4203 25.9033 31.4098 25.9135C31.3993 25.9237 31.3864 25.9315 31.3721 25.9362C31.3579 25.9409 31.3426 25.9423 31.3276 25.9405H30.5817C30.5538 25.9411 30.5264 25.9332 30.5036 25.9181C30.4808 25.9029 30.4637 25.8813 30.4549 25.8564L29.7762 24.2719C29.7762 24.2474 29.7426 24.2544 29.7426 24.2719L29.7874 25.8354C29.7874 25.9055 29.7538 25.937 29.6829 25.937H28.9184C28.9047 25.9385 28.8909 25.9373 28.8778 25.9333C28.8647 25.9294 28.8527 25.923 28.8425 25.9143C28.8322 25.9057 28.8241 25.8952 28.8185 25.8834C28.813 25.8716 28.8101 25.8588 28.8102 25.8459Z" fill="white"/>
<path d="M22.0037 1.31104C22.5893 1.31104 22.8093 1.81583 22.8093 2.32412V6.741C22.8083 6.81974 22.7746 6.895 22.7154 6.95069C22.6561 7.00637 22.5761 7.03805 22.4923 7.03896H21.903C21.8189 7.03808 21.7384 7.00651 21.6786 6.95092C21.6188 6.89533 21.5842 6.82006 21.5823 6.741V1.77026C21.5823 1.56344 21.6084 1.31104 22.0037 1.31104ZM25.2111 13.4785V9.77673C25.2121 9.73688 25.2045 9.69725 25.1887 9.66024C25.173 9.62323 25.1494 9.58961 25.1194 9.56142C25.0894 9.53323 25.0536 9.51106 25.0143 9.49625C24.9749 9.48144 24.9327 9.4743 24.8903 9.47526H23.1487C22.9286 9.47526 22.8056 9.59094 22.8056 9.82581V14.4004C22.8056 14.8351 22.6862 15.1015 22.22 15.1015C21.7539 15.1015 21.5823 14.8246 21.5823 14.4004V8.64797C21.5789 8.6108 21.5842 8.57337 21.5978 8.53832C21.6114 8.50326 21.633 8.47143 21.661 8.44505C21.6891 8.41866 21.723 8.39837 21.7603 8.38558C21.7976 8.3728 21.8374 8.36784 21.8769 8.37104H24.8866C24.9707 8.37015 25.0512 8.33858 25.111 8.28299C25.1709 8.2274 25.2054 8.15214 25.2073 8.07308V4.56762C25.2073 1.65458 23.6633 0 21.1907 0H20.9707C19.1059 0 18.9418 0.438183 18.9418 2.39072V13.4785C18.9418 15.6659 19.3819 16.0305 22.1455 16.0305C24.909 16.0305 25.2073 15.7746 25.2073 13.4785H25.2111ZM10.916 4.8761C10.916 2.99016 10.5729 2.66766 8.76041 2.66766C6.09384 2.66766 4.69902 4.50802 4.69902 7.36147V7.82068C4.68975 7.86863 4.69297 7.91799 4.70843 7.96451C4.72389 8.01103 4.75112 8.05333 4.78779 8.0878C4.82445 8.12226 4.86946 8.14785 4.91896 8.16238C4.96845 8.17691 5.02095 8.17995 5.07197 8.17123H6.71293C6.75322 8.17359 6.7936 8.16835 6.83169 8.1558C6.86978 8.14325 6.90481 8.12365 6.93471 8.09816C6.96461 8.07267 6.98877 8.04181 7.00577 8.0074C7.02276 7.97298 7.03225 7.93572 7.03367 7.8978V4.64474C7.02541 4.54806 7.03859 4.45083 7.07236 4.35919C7.10613 4.26754 7.15976 4.18348 7.22986 4.11232C7.29997 4.04115 7.38501 3.98443 7.47963 3.94575C7.57425 3.90706 7.67638 3.88724 7.77956 3.88756C8.15251 3.88756 8.26812 4.04881 8.26812 4.39234V8.87933C6.84719 9.08615 4.69529 9.68208 4.69529 11.3857V13.5241C4.69529 15.5257 4.88923 16.0305 7.82804 16.0305C10.103 16.0305 10.9123 15.8727 10.9123 13.4785L10.916 4.8761ZM8.27185 14.4004C8.27185 14.8141 8.14878 15.1015 7.68259 15.1015C7.21641 15.1015 7.07096 14.8246 7.07096 14.4004V10.9265C7.07115 10.74 7.14354 10.56 7.27462 10.42C7.40571 10.28 7.58652 10.1897 7.78329 10.1658L8.27185 10.0747V14.4004ZM32.4015 7.86625C32.3995 7.94531 32.365 8.02058 32.3052 8.07617C32.2453 8.13176 32.1649 8.16333 32.0807 8.16422H30.3428C30.2593 8.16243 30.1798 8.13047 30.1208 8.07497C30.0617 8.01947 30.0277 7.94472 30.0258 7.86625V4.71134C30.0258 4.20655 29.8356 3.85601 29.3396 3.85601H29.2687C29.0002 3.85601 28.8286 4.06283 28.8286 4.36079V8.85479C28.8379 8.91008 28.867 8.96074 28.9111 8.99836C28.9552 9.03598 29.0116 9.0583 29.0711 9.06162H32.0099C32.2038 9.06162 32.3828 9.10719 32.3828 9.36308V13.4785C32.3828 15.6414 32.0621 16.0305 29.2986 16.0305C26.535 16.0305 26.1658 15.7115 26.1658 13.4785V11.4558C26.1668 11.3768 26.2003 11.3011 26.2595 11.2449C26.3186 11.1886 26.3987 11.1562 26.4828 11.1544H28.4408C28.4883 11.1505 28.5361 11.1559 28.5813 11.1704C28.6264 11.1848 28.6678 11.208 28.7029 11.2383C28.738 11.2687 28.766 11.3055 28.7851 11.3466C28.8041 11.3877 28.8139 11.4321 28.8137 11.4769V14.4004C28.8137 14.8351 28.9592 15.1015 29.4254 15.1015C29.8915 15.1015 30.0109 14.8246 30.0109 14.4004V10.5444C30.0151 10.5103 30.011 10.4758 29.999 10.4434C29.9869 10.411 29.9673 10.3815 29.9415 10.3573C29.9157 10.333 29.8843 10.3145 29.8499 10.3032C29.8154 10.2919 29.7786 10.2881 29.7424 10.292H26.5761C26.356 10.292 26.1845 10.2009 26.1845 9.96953V4.8761C26.1845 2.99016 26.5276 2.66766 27.9448 2.66766H28.0939C30.8575 2.66766 32.4015 4.3012 32.4015 7.29136V7.86625Z" fill="white"/>
<path d="M18.0619 13.4785C18.0619 15.6659 17.7188 16.0305 14.9515 16.0305C12.1843 16.0305 11.7964 15.6414 11.7964 13.4785V4.6237C11.7964 1.70365 13.3628 0 16.0368 0C17.7747 0 18.0693 0.252393 18.0693 2.36969V8.0275C18.0693 8.25887 17.9463 8.37805 17.7262 8.37805H15.9808C15.7608 8.37805 15.6601 8.28691 15.6601 8.05905V1.77026C15.6601 1.49683 15.5408 1.31104 15.1492 1.31104C14.5599 1.31104 14.4368 1.81583 14.4368 2.32412V14.4004C14.4368 14.8351 14.6084 15.1015 15.0746 15.1015C15.5408 15.1015 15.6601 14.8491 15.6601 14.4004V9.77673C15.662 9.69734 15.6964 9.62169 15.7561 9.56553C15.8159 9.50938 15.8964 9.47705 15.9808 9.47526H17.7188C17.8058 9.47591 17.8893 9.50726 17.9529 9.5631C18.0164 9.61894 18.0553 9.69519 18.0619 9.77673V13.4785Z" fill="white"/>
<path d="M18.4534 18.7472C16.2157 17.366 14.0712 16.9524 11.6247 16.9524C9.32364 16.9524 7.14937 17.6535 4.84457 17.6535C4.13597 17.6535 3.44975 17.5623 2.76353 17.5623C2.61025 17.5444 2.45466 17.5577 2.30731 17.6012C2.15996 17.6448 2.02428 17.7176 1.90948 17.8147L0.171556 19.5044C0.117617 19.5476 0.0743323 19.6013 0.0447078 19.6619C0.0150833 19.7224 -0.0001718 19.7883 1.45946e-06 19.8549C1.45946e-06 20.0162 0.123074 20.1073 0.317005 20.1073H36.6829C36.8769 20.1073 36.9999 20.0162 36.9999 19.8549C37.0009 19.7882 36.986 19.7221 36.9563 19.6614C36.9266 19.6008 36.8829 19.5471 36.8284 19.5044L35.0905 17.8253C34.9759 17.7277 34.8403 17.6547 34.6929 17.6111C34.5454 17.5675 34.3897 17.5545 34.2364 17.5729C33.5502 17.5729 32.864 17.664 32.1815 17.664C29.8804 17.664 27.7061 16.9629 25.4013 16.9629C22.9548 16.9629 20.7992 17.3766 18.5727 18.7577L18.4534 18.7472Z" fill="white"/>
</g>
<defs>
<clipPath id="clip0_97_1355">
<rect width="37" height="26" fill="white"/>
</clipPath>
</defs>
</svg>
