<svg width="107" height="95" viewBox="0 0 107 95" fill="none" xmlns="http://www.w3.org/2000/svg">
<path d="M105.883 52.7856C102.385 47.496 98.8875 42.206 95.3991 36.9164C93.042 33.3394 88.4034 31.8064 84.5662 34.068C84.274 34.2384 83.9912 34.4465 83.727 34.6545C78.5323 37.9004 73.3373 41.1557 68.1423 44.4013C59.5061 49.7954 67.4541 63.5543 76.1375 58.1321C76.5052 57.9051 76.8635 57.6781 77.2312 57.4508C71.9984 72.8377 55.5465 82.7831 38.8022 78.061C19.3142 72.5725 9.89543 49.3506 20.0401 31.7685C25.7346 21.8986 36.096 16.0884 47.3909 15.899C57.5734 15.7383 57.6017 -0.16882 47.3909 0.00135572C16.6269 0.50297 -6.70768 30.2071 1.74956 60.4224C10.0178 89.9939 45.3264 104.302 71.6685 88.4515C81.9452 82.2723 89.2048 72.516 92.6083 61.359C95.0597 64.5386 99.4155 65.8162 103.055 63.6774C106.59 61.605 108.268 56.3911 105.893 52.8046L105.883 52.7856Z" fill="white"/>
</svg>
