<svg  class="btn-play" width="110" height="110" viewBox="0 0 110 110" fill="none" xmlns="http://www.w3.org/2000/svg">

<style type="text/css">

    

    .arrow-play{
        fill: white;
         animation:zoom-in-zoom-out 1.5s ease infinite;
       
    }

    .btn-play{

    }
        @keyframes rotation {
        from {
            transform: rotate(0deg);
        }
        to {
            transform: rotate(359deg);
        }
        }

            @keyframes zoom-in-zoom-out {
        0% {
            transform: scale(1, 1);
        }
        50% {
            transform: scale(1.05, 1.05);
        }
        100% {
            transform: scale(1, 1);
        }
    }
</style>

<path class="circle-ini" opacity="0.5" d="M54.9966 3.5148e-07C85.3777 3.5148e-07 110 24.6256 110 55.0034C110 85.3845 85.3777 110.007 54.9966 110C24.6256 110.003 3.51528e-07 85.3811 3.51528e-07 54.9966C-0.00339723 24.6256 24.6222 -0.00339723 54.9966 3.5148e-07Z" fill="#F0808F"/>
<path class="circle-med" opacity="0.5" d="M54.9983 8.51611C80.6744 8.51611 101.484 29.329 101.484 55.0017C101.484 80.6777 80.6744 101.487 54.9983 101.484C29.329 101.487 8.51611 80.6744 8.51611 54.9983C8.51274 29.329 29.3256 8.51274 54.9983 8.51611Z" fill="#F0808F"/>
<path class="circle-fin" d="M90.1372 51.5943C88.4537 51.5943 87.0859 52.9586 87.0859 54.6455C87.0859 72.5321 72.5347 87.0869 54.6446 87.0869C36.7544 87.0869 22.2032 72.5356 22.2032 54.6455C22.2032 36.7554 36.7579 22.2041 54.6446 22.2041C56.328 22.2041 57.6958 20.8363 57.6958 19.1494C57.6958 17.4624 56.328 16.0981 54.6446 16.0981C33.3876 16.0981 16.0972 33.3885 16.0972 54.6455C16.0972 75.9025 33.3876 93.1929 54.6446 93.1929C75.9016 93.1929 93.1919 75.9025 93.1919 54.6455C93.1919 52.9586 91.8241 51.5943 90.1372 51.5943Z" fill="white"/>
<path class="arrow-play" d="M69.9755 52.1126L49.0481 38.0558C48.1117 37.428 46.9052 37.3684 45.9127 37.898C44.9167 38.4276 44.2959 39.4657 44.2959 40.5915V68.7015C44.2959 69.8308 44.9167 70.8655 45.9127 71.3915C46.9087 71.9246 48.1152 71.8615 49.0481 71.2337L69.9755 57.1769C70.8207 56.6123 71.3292 55.6618 71.3292 54.6413C71.3292 53.6207 70.8207 52.6737 69.9755 52.1091V52.1126ZM62.7998 54.6448L50.4019 62.9708V46.3187L62.7998 54.6448Z" fill="rgba(255, 193, 33, 1)"/>
<path class="circle1-xs" d="M79.4857 32.2313C81.1061 32.2313 82.4212 30.9126 82.4212 29.2923C82.4212 27.672 81.1061 26.3533 79.4857 26.3533C77.8654 26.3533 76.5432 27.672 76.5432 29.2923C76.5432 30.9126 77.8584 32.2313 79.4857 32.2313Z" fill="white"/>
<path class="circle2-xs" d="M87.3803 43.8436C89.0006 43.8436 90.3158 42.5249 90.3158 40.9046C90.3158 39.2843 89.0006 37.9656 87.3803 37.9656C85.76 37.9656 84.4377 39.2843 84.4377 40.9046C84.4377 42.5249 85.7529 43.8436 87.3803 43.8436Z" fill="white"/>
<path class="circle3-xs" d="M68.0604 24.7154C69.6808 24.7154 70.9959 23.3967 70.9959 21.7764C70.9959 20.1561 69.6808 18.8374 68.0604 18.8374C66.4401 18.8374 65.1179 20.1561 65.1179 21.7764C65.1179 23.3967 66.4331 24.7154 68.0604 24.7154Z" fill="white"/>
</svg>

