<svg width="26" height="26" viewBox="0 0 26 26" fill="none" xmlns="http://www.w3.org/2000/svg">
<path d="M12.8531 0C5.75531 0 0 5.8211 0 13C0 20.1789 5.75531 26 12.8531 26C19.9508 26 25.7062 20.1789 25.7062 13C25.7062 5.8211 19.9508 0 12.8531 0Z" fill="white"/>
<path d="M13.7849 23.4741C19.5047 22.9527 23.7236 17.8402 23.2081 12.0551C22.6926 6.2699 17.6379 2.00278 11.9181 2.52418C6.19832 3.04558 1.97943 8.15806 2.49493 13.9432C3.01044 19.7284 8.06513 23.9955 13.7849 23.4741Z" fill="black"/>
<path d="M13.7849 23.4741C19.5047 22.9527 23.7236 17.8402 23.2081 12.0551C22.6926 6.2699 17.6379 2.00278 11.9181 2.52418C6.19832 3.04558 1.97943 8.15806 2.49493 13.9432C3.01044 19.7284 8.06513 23.9955 13.7849 23.4741Z" fill="black"/>
<path d="M7.99081 10.6066H6.8743C6.35593 10.6066 5.93945 11.0278 5.93945 11.5521V14.1109C5.93945 14.6352 6.35593 15.0564 6.8743 15.0564H7.97751C8.18132 15.0564 8.37627 15.1237 8.5402 15.2447C9.14718 15.7062 10.7333 16.9206 11.9384 17.8438C12.5543 18.3143 13.436 17.8706 13.436 17.0864V8.64831C13.436 7.87306 12.5631 7.42494 11.9473 7.8865L8.54906 10.4229C8.38956 10.5439 8.19461 10.6066 7.99524 10.6066H7.99081Z" fill="white"/>
<path d="M15.4253 17.0467C15.0576 17.0467 14.7607 16.7151 14.7607 16.3118C14.7607 15.9936 14.9468 15.7157 15.2171 15.6172C16.3912 15.1914 17.1798 13.9905 17.1798 12.6282C17.1798 11.2659 16.3912 10.0649 15.2171 9.63922C14.9424 9.54064 14.7607 9.2628 14.7607 8.94464C14.7607 8.53685 15.0576 8.20972 15.4253 8.20972C15.4962 8.20972 15.5627 8.22316 15.6291 8.24557C17.3526 8.86397 18.509 10.6251 18.509 12.6282C18.509 14.6313 17.3526 16.3924 15.6291 17.0108C15.5627 17.0332 15.4918 17.0467 15.4253 17.0467Z" fill="white"/>
<path d="M14.8785 14.9028C14.4753 14.9028 14.1475 14.5712 14.1475 14.1634C14.1475 13.9393 14.2494 13.7287 14.4222 13.5898C14.7146 13.3523 14.8829 13.0027 14.8829 12.6263C14.8829 12.2499 14.7146 11.9004 14.4222 11.6628C14.2494 11.5239 14.1475 11.3133 14.1475 11.0893C14.1475 10.6815 14.4753 10.3499 14.8785 10.3499C15.0424 10.3499 15.1931 10.4036 15.3216 10.5067C15.964 11.022 16.3362 11.7928 16.3362 12.6263C16.3362 13.4598 15.9684 14.2306 15.3216 14.7459C15.1931 14.849 15.038 14.9028 14.8785 14.9028Z" fill="white"/>
</svg>
