<svg width="198" height="75" viewBox="0 0 198 75" fill="none" xmlns="http://www.w3.org/2000/svg">


<style type="text/css">





</style>


<path class="star" id="star-10" d="M181.273 43.3191C181.624 42.5249 182.751 42.5249 183.102 43.3191L186.42 50.8241C186.562 51.1457 186.862 51.369 187.211 51.4122L195.147 52.394C195.982 52.4972 196.324 53.522 195.718 54.106L189.795 59.8219C189.552 60.0562 189.444 60.3971 189.507 60.7286L191.071 68.9397C191.231 69.7828 190.325 70.4231 189.584 69.9903L182.692 65.9646C182.38 65.7826 181.995 65.7826 181.683 65.9646L174.791 69.9903C174.05 70.4231 173.144 69.7828 173.304 68.9397L174.868 60.7286C174.931 60.3971 174.823 60.0562 174.58 59.8219L168.657 54.106C168.051 53.522 168.393 52.4972 169.228 52.394L177.164 51.4122C177.513 51.369 177.813 51.1457 177.955 50.8241L181.273 43.3191Z" fill="black" fill-opacity="0.2"/>
<path class="star" id="star-9" d="M139.342 43.2187C139.699 42.4438 140.801 42.4438 141.158 43.2187L144.671 50.8343C144.816 51.1501 145.116 51.3675 145.461 51.4085L153.79 52.396C154.637 52.4964 154.977 53.5438 154.351 54.1232L148.193 59.8174C147.938 60.0535 147.824 60.4053 147.891 60.7464L149.526 68.9724C149.692 69.8093 148.801 70.4566 148.057 70.0398L140.738 65.9434C140.435 65.7735 140.065 65.7735 139.762 65.9434L132.443 70.0398C131.699 70.4566 130.808 69.8093 130.974 68.9724L132.609 60.7464C132.676 60.4053 132.562 60.0535 132.307 59.8174L126.149 54.1232C125.523 53.5438 125.863 52.4964 126.71 52.396L135.039 51.4085C135.384 51.3675 135.684 51.1501 135.829 50.8343L139.342 43.2187Z" fill="black" fill-opacity="0.2"/>
<path class="star" id="star-8" d="M98.0919 43.2187C98.4494 42.4438 99.5506 42.4438 99.9081 43.2187L103.421 50.8343C103.566 51.1501 103.866 51.3675 104.211 51.4085L112.54 52.396C113.387 52.4964 113.727 53.5438 113.101 54.1232L106.943 59.8174C106.688 60.0535 106.574 60.4053 106.641 60.7464L108.276 68.9724C108.442 69.8093 107.551 70.4566 106.807 70.0398L99.4884 65.9434C99.185 65.7735 98.815 65.7735 98.5116 65.9434L91.1933 70.0398C90.4487 70.4566 89.5578 69.8093 89.7241 68.9724L91.3585 60.7464C91.4263 60.4053 91.312 60.0535 91.0567 59.8174L84.8993 54.1232C84.2728 53.5438 84.6131 52.4964 85.4605 52.396L93.7889 51.4085C94.1342 51.3675 94.4335 51.1501 94.5792 50.8343L98.0919 43.2187Z" fill="black" fill-opacity="0.2"/>
<path class="star" id="star-7" d="M56.8419 43.2187C57.1994 42.4438 58.3006 42.4438 58.6581 43.2187L62.1708 50.8343C62.3165 51.1501 62.6158 51.3675 62.9611 51.4085L71.2895 52.396C72.1369 52.4964 72.4772 53.5438 71.8507 54.1232L65.6933 59.8174C65.438 60.0535 65.3237 60.4053 65.3915 60.7464L67.0259 68.9724C67.1922 69.8093 66.3013 70.4566 65.5567 70.0398L58.2384 65.9434C57.935 65.7735 57.565 65.7735 57.2616 65.9434L49.9433 70.0398C49.1987 70.4566 48.3078 69.8093 48.4741 68.9724L50.1085 60.7464C50.1763 60.4053 50.062 60.0535 49.8067 59.8174L43.6493 54.1232C43.0228 53.5438 43.3631 52.4964 44.2105 52.396L52.5389 51.4085C52.8842 51.3675 53.1835 51.1501 53.3292 50.8343L56.8419 43.2187Z" fill="black" fill-opacity="0.2"/>
<path class="star" id="star-6" d="M15.5919 43.2187C15.9494 42.4438 17.0506 42.4438 17.4081 43.2187L20.9208 50.8343C21.0665 51.1501 21.3658 51.3675 21.7111 51.4085L30.0395 52.396C30.8869 52.4964 31.2272 53.5438 30.6007 54.1232L24.4433 59.8174C24.188 60.0535 24.0737 60.4053 24.1415 60.7464L25.7759 68.9724C25.9422 69.8093 25.0513 70.4566 24.3067 70.0398L16.9884 65.9434C16.685 65.7735 16.315 65.7735 16.0116 65.9434L8.69333 70.0398C7.94872 70.4566 7.05776 69.8093 7.22406 68.9724L8.85854 60.7464C8.92632 60.4053 8.812 60.0535 8.55667 59.8174L2.39928 54.1232C1.77278 53.5438 2.11309 52.4964 2.96048 52.396L11.2889 51.4085C11.6342 51.3675 11.9335 51.1501 12.0792 50.8343L15.5919 43.2187Z" fill="black" fill-opacity="0.2"/>
<path class="star" id="star-5" d="M181.273 2.06912C181.624 1.27485 182.751 1.27485 183.102 2.06912L186.42 9.57406C186.562 9.8957 186.862 10.119 187.211 10.1622L195.147 11.144C195.982 11.2472 196.324 12.272 195.718 12.856L189.795 18.5719C189.552 18.8062 189.444 19.1471 189.507 19.4786L191.071 27.6897C191.231 28.5328 190.325 29.1731 189.584 28.7403L182.692 24.7146C182.38 24.5326 181.995 24.5326 181.683 24.7146L174.791 28.7403C174.05 29.1731 173.144 28.5328 173.304 27.6897L174.868 19.4786C174.931 19.1471 174.823 18.8062 174.58 18.5719L168.657 12.856C168.051 12.272 168.393 11.2472 169.228 11.144L177.164 10.1622C177.513 10.119 177.813 9.8957 177.955 9.57406L181.273 2.06912Z" fill="black" fill-opacity="0.2"/>
<path class="star" id="star-4" d="M139.342 1.96867C139.699 1.19379 140.801 1.19379 141.158 1.96867L144.671 9.58429C144.816 9.9001 145.116 10.1175 145.461 10.1585L153.79 11.146C154.637 11.2464 154.977 12.2938 154.351 12.8732L148.193 18.5674C147.938 18.8035 147.824 19.1553 147.891 19.4964L149.526 27.7224C149.692 28.5593 148.801 29.2066 148.057 28.7898L140.738 24.6934C140.435 24.5235 140.065 24.5235 139.762 24.6934L132.443 28.7898C131.699 29.2066 130.808 28.5593 130.974 27.7224L132.609 19.4964C132.676 19.1553 132.562 18.8035 132.307 18.5674L126.149 12.8732C125.523 12.2938 125.863 11.2464 126.71 11.146L135.039 10.1585C135.384 10.1175 135.684 9.9001 135.829 9.58429L139.342 1.96867Z" fill="black" fill-opacity="0.2"/>
<path class="star" id="star-3" d="M98.0919 1.96867C98.4494 1.19379 99.5506 1.19379 99.9081 1.96867L103.421 9.58429C103.566 9.9001 103.866 10.1175 104.211 10.1585L112.54 11.146C113.387 11.2464 113.727 12.2938 113.101 12.8732L106.943 18.5674C106.688 18.8035 106.574 19.1553 106.641 19.4964L108.276 27.7224C108.442 28.5593 107.551 29.2066 106.807 28.7898L99.4884 24.6934C99.185 24.5235 98.815 24.5235 98.5116 24.6934L91.1933 28.7898C90.4487 29.2066 89.5578 28.5593 89.7241 27.7224L91.3585 19.4964C91.4263 19.1553 91.312 18.8035 91.0567 18.5674L84.8993 12.8732C84.2728 12.2938 84.6131 11.2464 85.4605 11.146L93.7889 10.1585C94.1342 10.1175 94.4335 9.9001 94.5792 9.58429L98.0919 1.96867Z" fill="black" fill-opacity="0.2"/>
<path class="star" id="star-2" d="M56.8419 1.96867C57.1994 1.19379 58.3006 1.19379 58.6581 1.96867L62.1708 9.58429C62.3165 9.9001 62.6158 10.1175 62.9611 10.1585L71.2895 11.146C72.1369 11.2464 72.4772 12.2938 71.8507 12.8732L65.6933 18.5674C65.438 18.8035 65.3237 19.1553 65.3915 19.4964L67.0259 27.7224C67.1922 28.5593 66.3013 29.2066 65.5567 28.7898L58.2384 24.6934C57.935 24.5235 57.565 24.5235 57.2616 24.6934L49.9433 28.7898C49.1987 29.2066 48.3078 28.5593 48.4741 27.7224L50.1085 19.4964C50.1763 19.1553 50.062 18.8035 49.8067 18.5674L43.6493 12.8732C43.0228 12.2938 43.3631 11.2464 44.2105 11.146L52.5389 10.1585C52.8842 10.1175 53.1835 9.9001 53.3292 9.58429L56.8419 1.96867Z" fill="black" fill-opacity="0.2"/>
<path class="star" id="star-1" d="M15.5919 1.96867C15.9494 1.19379 17.0506 1.19379 17.4081 1.96867L20.9208 9.58429C21.0665 9.9001 21.3658 10.1175 21.7111 10.1585L30.0395 11.146C30.8869 11.2464 31.2272 12.2938 30.6007 12.8732L24.4433 18.5674C24.188 18.8035 24.0737 19.1553 24.1415 19.4964L25.7759 27.7224C25.9422 28.5593 25.0513 29.2066 24.3067 28.7898L16.9884 24.6934C16.685 24.5235 16.315 24.5235 16.0116 24.6934L8.69333 28.7898C7.94872 29.2066 7.05776 28.5593 7.22406 27.7224L8.85854 19.4964C8.92632 19.1553 8.812 18.8035 8.55667 18.5674L2.39928 12.8732C1.77278 12.2938 2.11309 11.2464 2.96048 11.146L11.2889 10.1585C11.6342 10.1175 11.9335 9.9001 12.0792 9.58429L15.5919 1.96867Z" fill="black" fill-opacity="0.2"/>
</svg>
