<svg id="Capa_1" data-name="Capa 1" xmlns="http://www.w3.org/2000/svg" viewBox="0 0 205.67 153.94"><defs><style>.cls-1{fill:#fff;}</style></defs><path class="cls-1" d="M36.45,148.41l5.06,0a.54.54,0,0,1,.61.6v3.66a.56.56,0,0,1-.62.61l-10.14,0a.55.55,0,0,1-.61-.61l.06-20.11a.56.56,0,0,1,.62-.61l9.83,0a.55.55,0,0,1,.61.62v3.65a.54.54,0,0,1-.61.61l-4.75,0a.15.15,0,0,0-.16.15v2.9a.15.15,0,0,0,.16.15h4.35a.55.55,0,0,1,.61.61v3.63a.55.55,0,0,1-.61.61l-4.36,0a.15.15,0,0,0-.15.16v3.23a.14.14,0,0,0,.15.15"/><path class="cls-1" d="M46.47,152.71l.06-20.11a.56.56,0,0,1,.62-.61l5.66,0c2.29,0,4,.38,5.27,1.45,1.67,1.47,2.45,4.24,2.44,9.24,0,4.57-.7,7.28-2.07,8.83-1.29,1.4-3.17,1.82-5.71,1.81l-5.66,0a.54.54,0,0,1-.61-.61m5.59-4.31h.7a1.66,1.66,0,0,0,1.53-.79c.58-1,.68-2.74.68-4.93,0-2.41-.09-4.22-.78-5.12a1.65,1.65,0,0,0-1.4-.61H52.1a.14.14,0,0,0-.16.15l0,11.15a.14.14,0,0,0,.15.15"/><path class="cls-1" d="M67,152.56c-1.37-1-2.22-2.7-2.21-5.59l0-14.31a.55.55,0,0,1,.62-.61h4.32a.54.54,0,0,1,.61.61l0,14.32a2.21,2.21,0,0,0,.35,1.43,1.23,1.23,0,0,0,1,.34,1.17,1.17,0,0,0,1-.42A2.34,2.34,0,0,0,73,147l0-14.32a.55.55,0,0,1,.62-.61H78a.56.56,0,0,1,.61.62l0,14.32c0,2.83-.83,4.53-2.18,5.51a8.06,8.06,0,0,1-4.73,1.17A8.16,8.16,0,0,1,67,152.56"/><path class="cls-1" d="M82.86,142.76c0-9,2.74-10.95,7.77-10.94a16.18,16.18,0,0,1,3.38.44.54.54,0,0,1,.49.67l-.29,3.51a.53.53,0,0,1-.7.51,10,10,0,0,0-1.89-.19c-3,0-3.21,2-3.22,6s.2,6,3.18,6a12.77,12.77,0,0,0,2.26-.17.53.53,0,0,1,.7.52l.26,3.5a.55.55,0,0,1-.49.67,16.9,16.9,0,0,1-3.75.42c-5,0-7.73-1.95-7.7-11"/><path class="cls-1" d="M98.94,153.48a.58.58,0,0,1-.62-.66c.45-4,2-13.5,3.27-20.19a.57.57,0,0,1,.58-.47l7.39,0a.57.57,0,0,1,.57.48c1.29,6.57,2.67,16.18,3.06,20.21a.59.59,0,0,1-.62.65h-4.31a.6.6,0,0,1-.62-.58c-.09-1.11-.19-2.3-.31-3.53a.15.15,0,0,0-.15-.13h-2.81a.15.15,0,0,0-.16.13c-.13,1.23-.25,2.42-.34,3.52a.62.62,0,0,1-.63.58Zm7.66-9.12a.16.16,0,0,0,.16-.18c-.26-2.18-.54-4.4-.82-6.49,0,0-.19,0-.19,0-.29,2.09-.6,4.3-.89,6.49a.16.16,0,0,0,.16.18Z"/><path class="cls-1" d="M116.53,142.87c0-9.05,2.74-11,7.77-10.94a16.11,16.11,0,0,1,3.38.43.54.54,0,0,1,.48.68l-.28,3.5a.53.53,0,0,1-.7.51,12,12,0,0,0-1.89-.19c-3,0-3.21,2-3.22,6s.19,6,3.18,6a11.83,11.83,0,0,0,2.26-.18.53.53,0,0,1,.7.52l.26,3.51a.57.57,0,0,1-.49.67,16.9,16.9,0,0,1-3.75.41c-5,0-7.73-2-7.7-11"/><path class="cls-1" d="M132.4,153l.06-20.11a.55.55,0,0,1,.61-.6h4.33a.55.55,0,0,1,.61.61L137.94,153a.54.54,0,0,1-.61.6H133a.54.54,0,0,1-.61-.61"/><path class="cls-1" d="M144.65,152.46c-2-1.71-2.34-4.88-2.32-9.48,0-4.36.42-7.41,2.1-9.17,1.13-1.18,2.8-1.75,5.34-1.74s4.19.67,5.26,2c1.55,1.8,1.94,4.85,1.92,9,0,4.72-.48,7.89-2.52,9.56a7.41,7.41,0,0,1-4.89,1.36c-2.25,0-3.83-.5-4.89-1.48m6.71-6.06c.06-1.57.07-2.41.07-3.39s0-1.82-.05-3.39S151,137,149.65,137s-1.68.92-1.74,2.6-.07,2.44-.07,3.39,0,1.82,0,3.39.39,2.61,1.73,2.61,1.68-.92,1.74-2.6m-3.14-16.14.8-2.34a.66.66,0,0,1,.7-.49l3.53,0c.49,0,.67.33.37.73L152,130.57a.81.81,0,0,1-.73.4H148.7c-.45,0-.64-.27-.48-.7"/><path class="cls-1" d="M161.91,153.67a.55.55,0,0,1-.61-.61l.06-20.11a.56.56,0,0,1,.62-.61h4.14a.73.73,0,0,1,.7.5l3.57,9.3c.05.15.18.09.18,0l-.21-9.14c0-.43.18-.61.57-.61h4.33a.54.54,0,0,1,.6.62l-.06,20.11a.54.54,0,0,1-.61.6h-4a.71.71,0,0,1-.69-.49l-3.75-9.39c-.07-.16-.19-.1-.19,0l.22,9.24c0,.42-.19.6-.58.6Z"/><path class="cls-1" d="M122.62,7.86c3.27,0,4.49,3,4.48,6L127,40a1.82,1.82,0,0,1-1.78,1.77H122A1.81,1.81,0,0,1,120.21,40l.09-29.38c0-1.22.15-2.72,2.32-2.71m17.6,72,.07-21.9a1.72,1.72,0,0,0-1.76-1.77l-9.66,0c-1.22,0-1.91.67-1.91,2l-.08,27.07c0,2.58-.7,4.22-3.28,4.21s-3.53-1.65-3.52-4.23l.1-34a1.49,1.49,0,0,1,1.63-1.62l16.74.05a1.8,1.8,0,0,0,1.77-1.76l.06-20.68C140.44,10,131.9.13,118.16.09h-1.22c-10.48,0-11.3,2.56-11.34,14.12l-.2,65.56c0,12.93,2.4,15.11,17.77,15.16s17-1.58,17-15M60.94,28.75C61,17.6,59.07,15.69,49,15.66,34.18,15.61,26.4,26.47,26.35,43.34v2.72a1.79,1.79,0,0,0,2,2l9.25,0a1.68,1.68,0,0,0,1.77-1.62l.06-19.18c0-2,1.24-4.49,4.1-4.48,2,0,2.72,1,2.71,3l-.08,26.52c-7.9,1.21-19.88,4.71-19.91,14.77l0,12.65c0,11.84,1.05,14.83,17.37,14.88,12.65,0,17.14-.9,17.18-15ZM46.08,85c0,2.45-.69,4.22-3.28,4.21S39.4,87.58,39.41,85l.06-20.54a4.54,4.54,0,0,1,4-4.47l2.73-.54ZM180.32,46.8a1.81,1.81,0,0,1-1.78,1.76l-9.66,0a1.8,1.8,0,0,1-1.76-1.77L167.18,28c0-2.86-1.07-5-3.79-5H163c-1.5,0-2.45,1.21-2.46,3l-.08,26.66a1.46,1.46,0,0,0,1.35,1.23l16.33,0c1.08,0,2.17.28,2.17,1.77L180.21,80c0,12.79-1.81,15.09-17.18,15.05s-17.41-2-17.37-15.15l0-12a1.79,1.79,0,0,1,1.77-1.76l10.89,0a1.89,1.89,0,0,1,2,1.91l0,17.27c0,2.59.8,4.22,3.38,4.23S167,88,167,85.39l.07-22.85a1.36,1.36,0,0,0-1.49-1.5L147.9,61c-1.23,0-2.18-.56-2.17-1.91L145.82,29c0-11.15,1.94-13,9.83-13h.82c15.37,0,23.91,9.73,23.86,27.41Z"/><path class="cls-1" d="M100.51,79.75c0,12.92-2,15.09-17.33,15s-17.54-2.36-17.5-15.15l.16-52.37C65.89,10,74.63,0,89.46,0c9.66,0,11.29,1.53,11.25,14.05l-.11,33.46c0,1.36-.68,2-1.91,2l-9.66,0c-1.22,0-1.76-.54-1.75-1.9l.11-37.14c0-1.63-.68-2.72-2.85-2.73-3.27,0-4,3-4,6l-.22,71.41c0,2.59.94,4.09,3.52,4.1s3.27-1.49,3.28-4.07l.08-27.34A1.81,1.81,0,0,1,89,56l9.66,0a1.92,1.92,0,0,1,1.9,1.78Z"/><path class="cls-1" d="M102.58,110.9c-12.35-8.2-24.31-10.68-37.91-10.72-12.79,0-24.91,4.14-37.69,4.1-3.95,0-7.76-.57-11.57-.58-2.58,0-3.81.53-4.76,1.48L1,115.08a2.66,2.66,0,0,0-1,2c0,.95.68,1.49,1.77,1.5l99.57.3h3l99.57.31c1.09,0,1.77-.54,1.77-1.49a2.68,2.68,0,0,0-.94-2l-9.63-10c-.95-1-2.18-1.51-4.76-1.52-3.81,0-7.62.52-11.43.51-12.78,0-24.88-4.29-37.66-4.33-13.6,0-25.58,2.37-38,10.49Z"/></svg>